%TF.GenerationSoftware,KiCad,Pcbnew,5.1.0-rc2-unknown-036be7d~80~ubuntu16.04.1*%
%TF.CreationDate,2022-06-01T13:33:31+03:00*%
%TF.ProjectId,Flash-e_Rev_C,466c6173-682d-4655-9f52-65765f432e6b,A*%
%TF.SameCoordinates,Original*%
%TF.FileFunction,Paste,Bot*%
%TF.FilePolarity,Positive*%
%FSLAX46Y46*%
G04 Gerber Fmt 4.6, Leading zero omitted, Abs format (unit mm)*
G04 Created by KiCad (PCBNEW 5.1.0-rc2-unknown-036be7d~80~ubuntu16.04.1) date 2022-06-01 13:33:31*
%MOMM*%
%LPD*%
G04 APERTURE LIST*
%ADD10R,1.600000X0.250000*%
%ADD11R,2.000000X2.000000*%
%ADD12R,0.600000X2.200000*%
%ADD13R,0.500000X0.550000*%
%ADD14R,0.550000X0.500000*%
%ADD15R,1.016000X1.016000*%
G04 APERTURE END LIST*
D10*
%TO.C,Flash_CON1*%
X152930000Y-95690000D03*
X152930000Y-93190000D03*
X152930000Y-93690000D03*
X152930000Y-91690000D03*
X152930000Y-92190000D03*
X152930000Y-88190000D03*
X152930000Y-88690000D03*
X152930000Y-86690000D03*
X152930000Y-87190000D03*
X152930000Y-90690000D03*
X152930000Y-90190000D03*
X152930000Y-87690000D03*
X152930000Y-89190000D03*
X152930000Y-89690000D03*
X152930000Y-91190000D03*
X152930000Y-95190000D03*
X152930000Y-92690000D03*
X152930000Y-94190000D03*
X152930000Y-94690000D03*
X152930000Y-96190000D03*
X149330000Y-90690000D03*
X149330000Y-88190000D03*
X149330000Y-88690000D03*
X149330000Y-86690000D03*
X149330000Y-87190000D03*
X149330000Y-90190000D03*
X149330000Y-87690000D03*
X149330000Y-89190000D03*
X149330000Y-89690000D03*
X149330000Y-91190000D03*
X149330000Y-91690000D03*
X149330000Y-92190000D03*
X149330000Y-92690000D03*
X149330000Y-93190000D03*
X149330000Y-93690000D03*
X149330000Y-94190000D03*
X149330000Y-94690000D03*
X149330000Y-95190000D03*
X149330000Y-95690000D03*
D11*
X151130000Y-85040000D03*
X151130000Y-97840000D03*
D10*
X149330000Y-96190000D03*
%TD*%
D12*
%TO.C,U3*%
X137287000Y-88078000D03*
X136017000Y-88078000D03*
X134747000Y-88078000D03*
X133477000Y-88078000D03*
X133477000Y-94548000D03*
X134747000Y-94548000D03*
X136017000Y-94548000D03*
X137287000Y-94548000D03*
%TD*%
D13*
%TO.C,R4*%
X145796000Y-96647000D03*
X144780000Y-96647000D03*
%TD*%
%TO.C,R7*%
X134493000Y-86233000D03*
X133477000Y-86233000D03*
%TD*%
D14*
%TO.C,R8*%
X139573000Y-96647000D03*
X139573000Y-95631000D03*
%TD*%
%TO.C,R5*%
X142341600Y-91363800D03*
X142341600Y-92379800D03*
%TD*%
%TO.C,R6*%
X140030200Y-91389200D03*
X140030200Y-92405200D03*
%TD*%
D15*
%TO.C,C4*%
X141859000Y-94107000D03*
X143637000Y-94107000D03*
%TD*%
%TO.C,C8*%
X138811000Y-94615000D03*
X138811000Y-92837000D03*
%TD*%
D14*
%TO.C,C3*%
X154940000Y-91694000D03*
X154940000Y-90678000D03*
%TD*%
D15*
%TO.C,C5*%
X145034000Y-94107000D03*
X145034000Y-92329000D03*
%TD*%
D14*
%TO.C,C6*%
X141224000Y-90703400D03*
X141224000Y-91719400D03*
%TD*%
D13*
%TO.C,C7*%
X140970000Y-93853000D03*
X139954000Y-93853000D03*
%TD*%
D14*
%TO.C,C9*%
X138557000Y-88392000D03*
X138557000Y-87376000D03*
%TD*%
D15*
%TO.C,C10*%
X138811000Y-89712800D03*
X138811000Y-91490800D03*
%TD*%
D13*
%TO.C,C11*%
X137414000Y-86233000D03*
X138430000Y-86233000D03*
%TD*%
%TO.C,R16*%
X136779000Y-96647000D03*
X135763000Y-96647000D03*
%TD*%
%TO.C,R17*%
X136525000Y-86233000D03*
X135509000Y-86233000D03*
%TD*%
%TO.C,R12*%
X147320000Y-86233000D03*
X146304000Y-86233000D03*
%TD*%
%TO.C,R9*%
X140208000Y-86233000D03*
X139192000Y-86233000D03*
%TD*%
%TO.C,R13*%
X142240000Y-86360000D03*
X141224000Y-86360000D03*
%TD*%
D14*
%TO.C,R14*%
X138684000Y-96647000D03*
X138684000Y-95631000D03*
%TD*%
M02*
