M48
; DRILL file {KiCad 5.1.0-rc2-unknown-036be7d~80~ubuntu16.04.1} date  1.06.2022 (ср) 13:33:34 EEST
; FORMAT={-:-/ absolute / inch / decimal}
; #@! TF.CreationDate,2022-06-01T13:33:34+03:00*
; #@! TF.GenerationSoftware,Kicad,Pcbnew,5.1.0-rc2-unknown-036be7d~80~ubuntu16.04.1
; #@! TF.FileFunction,Plated,1,4,PTH
FMAT,2
INCH
T1C0.0100
T2C0.0118
T3C0.0157
T4C0.0236
%
G90
G05
T1
X5.276Y-3.457
X5.28Y-3.375
X5.282Y-3.42
X5.4567Y-3.5669
X5.48Y-3.425
X5.498Y-3.4469
X5.5177Y-3.4272
X5.52Y-3.745
X5.537Y-3.577
X5.5374Y-3.5496
X5.538Y-3.604
X5.538Y-3.631
X5.538Y-3.658
X5.54Y-3.76
X5.546Y-3.425
X5.56Y-3.45
X5.563Y-3.668
X5.563Y-3.745
X5.5709Y-3.5295
X5.578Y-3.586
X5.585Y-3.76
X5.591Y-3.667
X5.5965Y-3.5295
X5.599Y-3.567
X5.615Y-3.43
X5.635Y-3.599
X5.655Y-3.415
X5.675Y-3.54
X5.675Y-3.57
X5.675Y-3.805
X5.68Y-3.425
X5.695Y-3.45
X5.745Y-3.37
X5.755Y-3.53
X5.755Y-3.64
X5.755Y-3.67
X5.755Y-3.7
X5.76Y-3.61
X5.785Y-3.66
X5.805Y-3.64
X6.07Y-3.739
X6.162Y-3.753
T2
X5.2825Y-3.5275
X5.285Y-3.66
X5.375Y-3.66
X5.385Y-3.415
X5.385Y-3.53
X5.415Y-3.415
X5.42Y-3.63
X5.42Y-3.66
X5.425Y-3.57
X5.43Y-3.8
X5.45Y-3.415
X5.455Y-3.5
X5.455Y-3.69
X5.54Y-3.397
X5.542Y-3.869
X5.578Y-3.625
X5.585Y-3.43
X5.615Y-3.75
X5.618Y-3.869
X5.6255Y-3.6275
X5.675Y-3.6
X5.675Y-3.63
X5.675Y-3.665
X5.815Y-3.515
X5.815Y-3.555
X5.875Y-3.86
X5.904Y-3.382
X5.995Y-3.875
X6.03Y-3.395
X6.07Y-3.53
X6.07Y-3.57
X6.07Y-3.61
X6.07Y-3.65
X6.07Y-3.78
X6.07Y-3.825
X6.133Y-3.327
X6.133Y-3.869
X6.16Y-3.675
T3
X5.235Y-3.345
X5.285Y-3.585
X5.285Y-3.625
X6.168Y-3.372
T4
X5.8Y-3.425
X6.17Y-3.41
X5.655Y-3.865
X6.17Y-3.635
X6.17Y-3.785
X5.43Y-3.865
X5.505Y-3.335
X6.17Y-3.56
X5.73Y-3.335
X6.17Y-3.86
X5.655Y-3.335
X5.73Y-3.865
X5.355Y-3.865
X5.28Y-3.865
X5.43Y-3.335
X5.805Y-3.865
X6.17Y-3.71
X5.58Y-3.335
X5.28Y-3.335
X5.235Y-3.805
X6.17Y-3.485
X6.095Y-3.865
X5.505Y-3.865
X5.355Y-3.335
X5.58Y-3.865
X5.805Y-3.335
X6.17Y-3.335
X6.095Y-3.335
T0
M30
