%TF.GenerationSoftware,KiCad,Pcbnew,5.1.0-rc2-unknown-036be7d~80~ubuntu16.04.1*%
%TF.CreationDate,2022-06-01T13:33:31+03:00*%
%TF.ProjectId,Flash-e_Rev_C,466c6173-682d-4655-9f52-65765f432e6b,A*%
%TF.SameCoordinates,Original*%
%TF.FileFunction,Copper,L2,Inr*%
%TF.FilePolarity,Positive*%
%FSLAX46Y46*%
G04 Gerber Fmt 4.6, Leading zero omitted, Abs format (unit mm)*
G04 Created by KiCad (PCBNEW 5.1.0-rc2-unknown-036be7d~80~ubuntu16.04.1) date 2022-06-01 13:33:31*
%MOMM*%
%LPD*%
G04 APERTURE LIST*
%TA.AperFunction,ViaPad*%
%ADD10C,0.900000*%
%TD*%
%TA.AperFunction,ViaPad*%
%ADD11C,0.500000*%
%TD*%
%TA.AperFunction,ViaPad*%
%ADD12C,0.457200*%
%TD*%
%TA.AperFunction,ViaPad*%
%ADD13C,0.700000*%
%TD*%
%TA.AperFunction,ViaPad*%
%ADD14C,1.000000*%
%TD*%
%TA.AperFunction,Conductor*%
%ADD15C,0.127000*%
%TD*%
G04 APERTURE END LIST*
D10*
%TO.N,/NAND-D6\005CeMMC-D6*%
%TO.C,TESTPAD7*%
X156718000Y-88519000D03*
%TD*%
%TO.N,/NAND-D0\005CeMMC-D0*%
%TO.C,TESTPAD1*%
X154813000Y-98171000D03*
%TD*%
%TO.N,/NAND-D1\005CeMMC-D1*%
%TO.C,TESTPAD2*%
X156718000Y-98044000D03*
%TD*%
%TO.N,/NAND-D2\005CeMMC-D2*%
%TO.C,TESTPAD3*%
X156718000Y-96139000D03*
%TD*%
%TO.N,/NAND-D3\005CeMMC-D3*%
%TO.C,TESTPAD4*%
X156718000Y-94234000D03*
%TD*%
%TO.N,/NAND-D4\005CeMMC-D4*%
%TO.C,TESTPAD5*%
X156718000Y-92329000D03*
%TD*%
%TO.N,/NAND-D5\005CeMMC-D5*%
%TO.C,TESTPAD6*%
X156718000Y-90424000D03*
%TD*%
%TO.N,/NAND-D7\005CeMMC-D7*%
%TO.C,TESTPAD8*%
X156718000Y-86614000D03*
%TD*%
%TO.N,/eMMC-CLK*%
%TO.C,TESTPAD9*%
X154813000Y-84709000D03*
%TD*%
%TO.N,/eMMC-DS*%
%TO.C,TESTPAD10*%
X156718000Y-84709000D03*
%TD*%
%TO.N,/eMMC-CMD*%
%TO.C,TESTPAD11*%
X143637000Y-84709000D03*
%TD*%
%TO.N,/eMMC-RST*%
%TO.C,TESTPAD12*%
X141732000Y-84709000D03*
%TD*%
%TO.N,+3V3*%
%TO.C,TESTPAD13*%
X147447000Y-84709000D03*
%TD*%
%TO.N,VDD*%
%TO.C,TESTPAD14*%
X145542000Y-84709000D03*
%TD*%
%TO.N,/SPI-CLK(CLK)*%
%TO.C,TESTPAD15*%
X139827000Y-84709000D03*
%TD*%
%TO.N,/SPI-MOSI(IO0)*%
%TO.C,TESTPAD16*%
X137922000Y-84709000D03*
%TD*%
%TO.N,/SPI-HOLD(IO3)*%
%TO.C,TESTPAD17*%
X136017000Y-84709000D03*
%TD*%
%TO.N,/SPI-WPn(IO2)*%
%TO.C,TESTPAD18*%
X134112000Y-84709000D03*
%TD*%
%TO.N,/SPI-MISO(IO1)*%
%TO.C,TESTPAD19*%
X134112000Y-98171000D03*
%TD*%
%TO.N,/SPI-CS(CMD)*%
%TO.C,TESTPAD20*%
X136017000Y-98171000D03*
%TD*%
%TO.N,/NAND-RB0*%
%TO.C,TESTPAD21*%
X137922000Y-98171000D03*
%TD*%
%TO.N,/NAND-RE*%
%TO.C,TESTPAD22*%
X139827000Y-98171000D03*
%TD*%
%TO.N,/NAND-CE0*%
%TO.C,TESTPAD23*%
X141732000Y-98171000D03*
%TD*%
%TO.N,/NAND-CLE*%
%TO.C,TESTPAD24*%
X143637000Y-98171000D03*
%TD*%
%TO.N,/NAND-ALE*%
%TO.C,TESTPAD25*%
X145542000Y-98171000D03*
%TD*%
%TO.N,/NAND-WE*%
%TO.C,TESTPAD26*%
X147447000Y-98171000D03*
%TD*%
%TO.N,GND*%
%TO.C,TESTPAD27*%
X132969000Y-96647000D03*
%TD*%
D11*
%TO.N,GND*%
X154178000Y-92710000D03*
X154178000Y-91694000D03*
X153162000Y-86233000D03*
X144145000Y-91440000D03*
D12*
X141859000Y-95504000D03*
X140716000Y-95504000D03*
D11*
X138557000Y-93726000D03*
D12*
X140665200Y-91541600D03*
D11*
X141681200Y-92075000D03*
X142887700Y-92138500D03*
D12*
X142214600Y-90601800D03*
X156514800Y-95326200D03*
D11*
X154178000Y-97155000D03*
X154178000Y-96012000D03*
D12*
X154178000Y-94970600D03*
D13*
X156667200Y-85648800D03*
D11*
X141859000Y-87122000D03*
X137795000Y-90678000D03*
X149225000Y-98044000D03*
D13*
X134239000Y-92075000D03*
X132969000Y-84963000D03*
D11*
X137668000Y-92202000D03*
X138430000Y-86741000D03*
D12*
X146177000Y-93980000D03*
D11*
X140766800Y-98272600D03*
X142697200Y-98272600D03*
X155778200Y-84505800D03*
X147701000Y-89281000D03*
X147701000Y-90297000D03*
X152273000Y-98425000D03*
X149961600Y-85902800D03*
X155778200Y-98272600D03*
D12*
X140650000Y-90159800D03*
D11*
%TO.N,+3V3*%
X144145000Y-92202000D03*
X144145000Y-93091000D03*
D12*
X140639800Y-90855800D03*
X141681200Y-91084400D03*
D11*
X154178000Y-90678000D03*
X154178000Y-89662000D03*
X156464000Y-93345000D03*
X137541000Y-86741000D03*
D13*
X134239000Y-91059000D03*
D11*
X137922000Y-96520000D03*
X136779000Y-86741000D03*
%TO.N,/SPI-WPn(IO2)*%
X142621000Y-95250000D03*
X137668000Y-92964000D03*
D12*
%TO.N,/SPI-CLK(CLK)*%
X134112000Y-85725000D03*
%TO.N,/SPI-MOSI(IO0)*%
X134010400Y-87807800D03*
%TO.N,VDD*%
X142150000Y-89650000D03*
X140208000Y-95123000D03*
X141300200Y-95123000D03*
X140665200Y-92913200D03*
D14*
X147320000Y-86995000D03*
D11*
X140716000Y-86283800D03*
%TO.N,/eMMC-VDDI*%
X138557000Y-88900000D03*
D12*
%TO.N,/eMMC_CLK*%
X142011400Y-93141800D03*
X145923000Y-85598000D03*
%TO.N,/NAND-D7\005CeMMC-D7*%
X142621000Y-87122000D03*
X146177000Y-89662000D03*
%TO.N,/NAND-D6\005CeMMC-D6*%
X141500000Y-89650000D03*
X144145000Y-89916000D03*
%TO.N,/NAND-D5\005CeMMC-D5*%
X138600000Y-90600000D03*
X144145000Y-90678000D03*
%TO.N,/NAND-D4\005CeMMC-D4*%
X139650000Y-87550000D03*
X146304000Y-91694000D03*
%TO.N,/NAND-D3\005CeMMC-D3*%
X139192000Y-86995000D03*
X146177000Y-92456000D03*
%TO.N,/NAND-D2\005CeMMC-D2*%
X141224000Y-87630000D03*
X147447000Y-92456000D03*
%TO.N,/NAND-D1\005CeMMC-D1*%
X140868400Y-86995000D03*
X146939000Y-92964000D03*
%TO.N,/eMMC-CMD*%
X141300200Y-93167200D03*
X144272000Y-86995000D03*
%TO.N,/eMMC-RST*%
X140665200Y-92227400D03*
X143637000Y-86741000D03*
D11*
%TO.N,/NAND-RB0*%
X136779000Y-89662000D03*
%TO.N,/NAND-RE*%
X134175500Y-89598500D03*
%TO.N,/NAND-CLE*%
X134239000Y-92964000D03*
%TO.N,/NAND-ALE*%
X136525000Y-92964000D03*
D12*
%TO.N,/NAND-D0\005CeMMC-D0*%
X140150000Y-87050000D03*
X146177000Y-93218000D03*
%TO.N,/eMMC_DS*%
X143129000Y-91414600D03*
X144653000Y-87630000D03*
%TO.N,/SPI_CLK*%
X134162800Y-86868000D03*
%TO.N,/NAND_CE0*%
X144145000Y-96647000D03*
%TD*%
D15*
%TO.N,GND*%
G36*
X133687513Y-84191762D02*
G01*
X133594762Y-84284513D01*
X133521887Y-84393578D01*
X133471690Y-84514764D01*
X133446100Y-84643415D01*
X133446100Y-84774585D01*
X133471690Y-84903236D01*
X133521887Y-85024422D01*
X133594762Y-85133487D01*
X133687513Y-85226238D01*
X133796578Y-85299113D01*
X133890859Y-85338166D01*
X133828648Y-85379734D01*
X133766734Y-85441648D01*
X133718089Y-85514450D01*
X133684582Y-85595344D01*
X133667500Y-85681221D01*
X133667500Y-85768779D01*
X133684582Y-85854656D01*
X133718089Y-85935550D01*
X133766734Y-86008352D01*
X133828648Y-86070266D01*
X133901450Y-86118911D01*
X133982344Y-86152418D01*
X134068221Y-86169500D01*
X134155779Y-86169500D01*
X134241656Y-86152418D01*
X134322550Y-86118911D01*
X134395352Y-86070266D01*
X134457266Y-86008352D01*
X134505911Y-85935550D01*
X134539418Y-85854656D01*
X134556500Y-85768779D01*
X134556500Y-85681221D01*
X134539418Y-85595344D01*
X134505911Y-85514450D01*
X134457266Y-85441648D01*
X134395352Y-85379734D01*
X134333141Y-85338166D01*
X134427422Y-85299113D01*
X134536487Y-85226238D01*
X134629238Y-85133487D01*
X134702113Y-85024422D01*
X134752310Y-84903236D01*
X134777900Y-84774585D01*
X134777900Y-84643415D01*
X134752310Y-84514764D01*
X134702113Y-84393578D01*
X134629238Y-84284513D01*
X134536487Y-84191762D01*
X134493292Y-84162900D01*
X135635708Y-84162900D01*
X135592513Y-84191762D01*
X135499762Y-84284513D01*
X135426887Y-84393578D01*
X135376690Y-84514764D01*
X135351100Y-84643415D01*
X135351100Y-84774585D01*
X135376690Y-84903236D01*
X135426887Y-85024422D01*
X135499762Y-85133487D01*
X135592513Y-85226238D01*
X135701578Y-85299113D01*
X135822764Y-85349310D01*
X135951415Y-85374900D01*
X136082585Y-85374900D01*
X136211236Y-85349310D01*
X136332422Y-85299113D01*
X136441487Y-85226238D01*
X136534238Y-85133487D01*
X136607113Y-85024422D01*
X136657310Y-84903236D01*
X136682900Y-84774585D01*
X136682900Y-84643415D01*
X136657310Y-84514764D01*
X136607113Y-84393578D01*
X136534238Y-84284513D01*
X136441487Y-84191762D01*
X136398292Y-84162900D01*
X137540708Y-84162900D01*
X137497513Y-84191762D01*
X137404762Y-84284513D01*
X137331887Y-84393578D01*
X137281690Y-84514764D01*
X137256100Y-84643415D01*
X137256100Y-84774585D01*
X137281690Y-84903236D01*
X137331887Y-85024422D01*
X137404762Y-85133487D01*
X137497513Y-85226238D01*
X137606578Y-85299113D01*
X137727764Y-85349310D01*
X137856415Y-85374900D01*
X137987585Y-85374900D01*
X138116236Y-85349310D01*
X138237422Y-85299113D01*
X138346487Y-85226238D01*
X138439238Y-85133487D01*
X138512113Y-85024422D01*
X138562310Y-84903236D01*
X138587900Y-84774585D01*
X138587900Y-84643415D01*
X138562310Y-84514764D01*
X138512113Y-84393578D01*
X138439238Y-84284513D01*
X138346487Y-84191762D01*
X138303292Y-84162900D01*
X139445708Y-84162900D01*
X139402513Y-84191762D01*
X139309762Y-84284513D01*
X139236887Y-84393578D01*
X139186690Y-84514764D01*
X139161100Y-84643415D01*
X139161100Y-84774585D01*
X139186690Y-84903236D01*
X139236887Y-85024422D01*
X139309762Y-85133487D01*
X139402513Y-85226238D01*
X139511578Y-85299113D01*
X139632764Y-85349310D01*
X139761415Y-85374900D01*
X139892585Y-85374900D01*
X140021236Y-85349310D01*
X140142422Y-85299113D01*
X140251487Y-85226238D01*
X140344238Y-85133487D01*
X140417113Y-85024422D01*
X140467310Y-84903236D01*
X140492900Y-84774585D01*
X140492900Y-84643415D01*
X140467310Y-84514764D01*
X140417113Y-84393578D01*
X140344238Y-84284513D01*
X140251487Y-84191762D01*
X140208292Y-84162900D01*
X141350708Y-84162900D01*
X141307513Y-84191762D01*
X141214762Y-84284513D01*
X141141887Y-84393578D01*
X141091690Y-84514764D01*
X141066100Y-84643415D01*
X141066100Y-84774585D01*
X141091690Y-84903236D01*
X141141887Y-85024422D01*
X141214762Y-85133487D01*
X141307513Y-85226238D01*
X141416578Y-85299113D01*
X141537764Y-85349310D01*
X141666415Y-85374900D01*
X141797585Y-85374900D01*
X141926236Y-85349310D01*
X142047422Y-85299113D01*
X142156487Y-85226238D01*
X142249238Y-85133487D01*
X142322113Y-85024422D01*
X142372310Y-84903236D01*
X142397900Y-84774585D01*
X142397900Y-84643415D01*
X142372310Y-84514764D01*
X142322113Y-84393578D01*
X142249238Y-84284513D01*
X142156487Y-84191762D01*
X142113292Y-84162900D01*
X143255708Y-84162900D01*
X143212513Y-84191762D01*
X143119762Y-84284513D01*
X143046887Y-84393578D01*
X142996690Y-84514764D01*
X142971100Y-84643415D01*
X142971100Y-84774585D01*
X142996690Y-84903236D01*
X143046887Y-85024422D01*
X143119762Y-85133487D01*
X143212513Y-85226238D01*
X143321578Y-85299113D01*
X143442764Y-85349310D01*
X143571415Y-85374900D01*
X143702585Y-85374900D01*
X143831236Y-85349310D01*
X143952422Y-85299113D01*
X144061487Y-85226238D01*
X144154238Y-85133487D01*
X144227113Y-85024422D01*
X144277310Y-84903236D01*
X144302900Y-84774585D01*
X144302900Y-84643415D01*
X144277310Y-84514764D01*
X144227113Y-84393578D01*
X144154238Y-84284513D01*
X144061487Y-84191762D01*
X144018292Y-84162900D01*
X145160708Y-84162900D01*
X145117513Y-84191762D01*
X145024762Y-84284513D01*
X144951887Y-84393578D01*
X144901690Y-84514764D01*
X144876100Y-84643415D01*
X144876100Y-84774585D01*
X144901690Y-84903236D01*
X144951887Y-85024422D01*
X145024762Y-85133487D01*
X145117513Y-85226238D01*
X145226578Y-85299113D01*
X145347764Y-85349310D01*
X145476415Y-85374900D01*
X145537475Y-85374900D01*
X145529089Y-85387450D01*
X145495582Y-85468344D01*
X145478500Y-85554221D01*
X145478500Y-85641779D01*
X145495582Y-85727656D01*
X145529089Y-85808550D01*
X145577734Y-85881352D01*
X145639648Y-85943266D01*
X145712450Y-85991911D01*
X145793344Y-86025418D01*
X145879221Y-86042500D01*
X145966779Y-86042500D01*
X146052656Y-86025418D01*
X146133550Y-85991911D01*
X146206352Y-85943266D01*
X146268266Y-85881352D01*
X146316911Y-85808550D01*
X146350418Y-85727656D01*
X146367500Y-85641779D01*
X146367500Y-85589188D01*
X152114100Y-85589188D01*
X152114100Y-85690812D01*
X152133926Y-85790482D01*
X152172816Y-85884370D01*
X152229274Y-85968867D01*
X152301133Y-86040726D01*
X152385630Y-86097184D01*
X152479518Y-86136074D01*
X152579188Y-86155900D01*
X152680812Y-86155900D01*
X152780482Y-86136074D01*
X152874370Y-86097184D01*
X152958867Y-86040726D01*
X153030726Y-85968867D01*
X153087184Y-85884370D01*
X153126074Y-85790482D01*
X153145900Y-85690812D01*
X153145900Y-85589188D01*
X153126074Y-85489518D01*
X153087184Y-85395630D01*
X153030726Y-85311133D01*
X152958867Y-85239274D01*
X152874370Y-85182816D01*
X152780482Y-85143926D01*
X152680812Y-85124100D01*
X152579188Y-85124100D01*
X152479518Y-85143926D01*
X152385630Y-85182816D01*
X152301133Y-85239274D01*
X152229274Y-85311133D01*
X152172816Y-85395630D01*
X152133926Y-85489518D01*
X152114100Y-85589188D01*
X146367500Y-85589188D01*
X146367500Y-85554221D01*
X146350418Y-85468344D01*
X146316911Y-85387450D01*
X146268266Y-85314648D01*
X146206352Y-85252734D01*
X146133550Y-85204089D01*
X146052656Y-85170582D01*
X146027205Y-85165520D01*
X146059238Y-85133487D01*
X146132113Y-85024422D01*
X146182310Y-84903236D01*
X146207900Y-84774585D01*
X146207900Y-84643415D01*
X146182310Y-84514764D01*
X146132113Y-84393578D01*
X146059238Y-84284513D01*
X145966487Y-84191762D01*
X145923292Y-84162900D01*
X147065708Y-84162900D01*
X147022513Y-84191762D01*
X146929762Y-84284513D01*
X146856887Y-84393578D01*
X146806690Y-84514764D01*
X146781100Y-84643415D01*
X146781100Y-84774585D01*
X146806690Y-84903236D01*
X146856887Y-85024422D01*
X146929762Y-85133487D01*
X147022513Y-85226238D01*
X147131578Y-85299113D01*
X147252764Y-85349310D01*
X147381415Y-85374900D01*
X147512585Y-85374900D01*
X147641236Y-85349310D01*
X147762422Y-85299113D01*
X147871487Y-85226238D01*
X147964238Y-85133487D01*
X148037113Y-85024422D01*
X148087310Y-84903236D01*
X148112900Y-84774585D01*
X148112900Y-84643415D01*
X148087310Y-84514764D01*
X148037113Y-84393578D01*
X147964238Y-84284513D01*
X147871487Y-84191762D01*
X147828292Y-84162900D01*
X154431708Y-84162900D01*
X154388513Y-84191762D01*
X154295762Y-84284513D01*
X154222887Y-84393578D01*
X154172690Y-84514764D01*
X154147100Y-84643415D01*
X154147100Y-84774585D01*
X154172690Y-84903236D01*
X154222887Y-85024422D01*
X154295762Y-85133487D01*
X154388513Y-85226238D01*
X154497578Y-85299113D01*
X154618764Y-85349310D01*
X154747415Y-85374900D01*
X154878585Y-85374900D01*
X155007236Y-85349310D01*
X155128422Y-85299113D01*
X155237487Y-85226238D01*
X155330238Y-85133487D01*
X155403113Y-85024422D01*
X155453310Y-84903236D01*
X155478900Y-84774585D01*
X155478900Y-84643415D01*
X155453310Y-84514764D01*
X155403113Y-84393578D01*
X155330238Y-84284513D01*
X155237487Y-84191762D01*
X155194292Y-84162900D01*
X156336708Y-84162900D01*
X156293513Y-84191762D01*
X156200762Y-84284513D01*
X156127887Y-84393578D01*
X156077690Y-84514764D01*
X156052100Y-84643415D01*
X156052100Y-84774585D01*
X156077690Y-84903236D01*
X156127887Y-85024422D01*
X156200762Y-85133487D01*
X156293513Y-85226238D01*
X156402578Y-85299113D01*
X156523764Y-85349310D01*
X156652415Y-85374900D01*
X156783585Y-85374900D01*
X156912236Y-85349310D01*
X157033422Y-85299113D01*
X157137101Y-85229837D01*
X157137101Y-86093163D01*
X157033422Y-86023887D01*
X156912236Y-85973690D01*
X156783585Y-85948100D01*
X156652415Y-85948100D01*
X156523764Y-85973690D01*
X156402578Y-86023887D01*
X156293513Y-86096762D01*
X156200762Y-86189513D01*
X156127887Y-86298578D01*
X156077690Y-86419764D01*
X156052100Y-86548415D01*
X156052100Y-86679585D01*
X156077690Y-86808236D01*
X156127887Y-86929422D01*
X156200762Y-87038487D01*
X156293513Y-87131238D01*
X156402578Y-87204113D01*
X156523764Y-87254310D01*
X156652415Y-87279900D01*
X156783585Y-87279900D01*
X156912236Y-87254310D01*
X157033422Y-87204113D01*
X157137101Y-87134837D01*
X157137101Y-87998163D01*
X157033422Y-87928887D01*
X156912236Y-87878690D01*
X156783585Y-87853100D01*
X156652415Y-87853100D01*
X156523764Y-87878690D01*
X156402578Y-87928887D01*
X156293513Y-88001762D01*
X156200762Y-88094513D01*
X156127887Y-88203578D01*
X156077690Y-88324764D01*
X156052100Y-88453415D01*
X156052100Y-88584585D01*
X156077690Y-88713236D01*
X156127887Y-88834422D01*
X156200762Y-88943487D01*
X156293513Y-89036238D01*
X156402578Y-89109113D01*
X156523764Y-89159310D01*
X156652415Y-89184900D01*
X156783585Y-89184900D01*
X156912236Y-89159310D01*
X157033422Y-89109113D01*
X157137101Y-89039837D01*
X157137101Y-89903163D01*
X157033422Y-89833887D01*
X156912236Y-89783690D01*
X156783585Y-89758100D01*
X156652415Y-89758100D01*
X156523764Y-89783690D01*
X156402578Y-89833887D01*
X156293513Y-89906762D01*
X156200762Y-89999513D01*
X156127887Y-90108578D01*
X156077690Y-90229764D01*
X156052100Y-90358415D01*
X156052100Y-90489585D01*
X156077690Y-90618236D01*
X156127887Y-90739422D01*
X156200762Y-90848487D01*
X156293513Y-90941238D01*
X156402578Y-91014113D01*
X156523764Y-91064310D01*
X156652415Y-91089900D01*
X156783585Y-91089900D01*
X156912236Y-91064310D01*
X157033422Y-91014113D01*
X157137101Y-90944837D01*
X157137100Y-91808163D01*
X157033422Y-91738887D01*
X156912236Y-91688690D01*
X156783585Y-91663100D01*
X156652415Y-91663100D01*
X156523764Y-91688690D01*
X156402578Y-91738887D01*
X156293513Y-91811762D01*
X156200762Y-91904513D01*
X156127887Y-92013578D01*
X156077690Y-92134764D01*
X156052100Y-92263415D01*
X156052100Y-92394585D01*
X156077690Y-92523236D01*
X156127887Y-92644422D01*
X156200762Y-92753487D01*
X156293513Y-92846238D01*
X156359996Y-92890661D01*
X156328102Y-92897005D01*
X156243314Y-92932125D01*
X156167006Y-92983112D01*
X156102112Y-93048006D01*
X156051125Y-93124314D01*
X156016005Y-93209102D01*
X155998100Y-93299113D01*
X155998100Y-93390887D01*
X156016005Y-93480898D01*
X156051125Y-93565686D01*
X156102112Y-93641994D01*
X156167006Y-93706888D01*
X156243314Y-93757875D01*
X156249739Y-93760536D01*
X156200762Y-93809513D01*
X156127887Y-93918578D01*
X156077690Y-94039764D01*
X156052100Y-94168415D01*
X156052100Y-94299585D01*
X156077690Y-94428236D01*
X156127887Y-94549422D01*
X156200762Y-94658487D01*
X156293513Y-94751238D01*
X156402578Y-94824113D01*
X156523764Y-94874310D01*
X156652415Y-94899900D01*
X156783585Y-94899900D01*
X156912236Y-94874310D01*
X157033422Y-94824113D01*
X157137100Y-94754837D01*
X157137100Y-95618163D01*
X157033422Y-95548887D01*
X156912236Y-95498690D01*
X156783585Y-95473100D01*
X156652415Y-95473100D01*
X156523764Y-95498690D01*
X156402578Y-95548887D01*
X156293513Y-95621762D01*
X156200762Y-95714513D01*
X156127887Y-95823578D01*
X156077690Y-95944764D01*
X156052100Y-96073415D01*
X156052100Y-96204585D01*
X156077690Y-96333236D01*
X156127887Y-96454422D01*
X156200762Y-96563487D01*
X156293513Y-96656238D01*
X156402578Y-96729113D01*
X156523764Y-96779310D01*
X156652415Y-96804900D01*
X156783585Y-96804900D01*
X156912236Y-96779310D01*
X157033422Y-96729113D01*
X157137100Y-96659837D01*
X157137100Y-97523163D01*
X157033422Y-97453887D01*
X156912236Y-97403690D01*
X156783585Y-97378100D01*
X156652415Y-97378100D01*
X156523764Y-97403690D01*
X156402578Y-97453887D01*
X156293513Y-97526762D01*
X156200762Y-97619513D01*
X156127887Y-97728578D01*
X156077690Y-97849764D01*
X156052100Y-97978415D01*
X156052100Y-98109585D01*
X156077690Y-98238236D01*
X156127887Y-98359422D01*
X156200762Y-98468487D01*
X156293513Y-98561238D01*
X156402578Y-98634113D01*
X156523764Y-98684310D01*
X156652415Y-98709900D01*
X156783585Y-98709900D01*
X156912236Y-98684310D01*
X157033422Y-98634113D01*
X157137100Y-98564837D01*
X157137100Y-98717100D01*
X155194292Y-98717100D01*
X155237487Y-98688238D01*
X155330238Y-98595487D01*
X155403113Y-98486422D01*
X155453310Y-98365236D01*
X155478900Y-98236585D01*
X155478900Y-98105415D01*
X155453310Y-97976764D01*
X155403113Y-97855578D01*
X155330238Y-97746513D01*
X155237487Y-97653762D01*
X155128422Y-97580887D01*
X155007236Y-97530690D01*
X154878585Y-97505100D01*
X154747415Y-97505100D01*
X154618764Y-97530690D01*
X154497578Y-97580887D01*
X154388513Y-97653762D01*
X154295762Y-97746513D01*
X154222887Y-97855578D01*
X154172690Y-97976764D01*
X154147100Y-98105415D01*
X154147100Y-98236585D01*
X154172690Y-98365236D01*
X154222887Y-98486422D01*
X154295762Y-98595487D01*
X154388513Y-98688238D01*
X154431708Y-98717100D01*
X147828292Y-98717100D01*
X147871487Y-98688238D01*
X147964238Y-98595487D01*
X148037113Y-98486422D01*
X148087310Y-98365236D01*
X148112900Y-98236585D01*
X148112900Y-98105415D01*
X148087310Y-97976764D01*
X148037113Y-97855578D01*
X147964238Y-97746513D01*
X147871487Y-97653762D01*
X147762422Y-97580887D01*
X147641236Y-97530690D01*
X147512585Y-97505100D01*
X147381415Y-97505100D01*
X147252764Y-97530690D01*
X147131578Y-97580887D01*
X147022513Y-97653762D01*
X146929762Y-97746513D01*
X146856887Y-97855578D01*
X146806690Y-97976764D01*
X146781100Y-98105415D01*
X146781100Y-98236585D01*
X146806690Y-98365236D01*
X146856887Y-98486422D01*
X146929762Y-98595487D01*
X147022513Y-98688238D01*
X147065708Y-98717100D01*
X145923292Y-98717100D01*
X145966487Y-98688238D01*
X146059238Y-98595487D01*
X146132113Y-98486422D01*
X146182310Y-98365236D01*
X146207900Y-98236585D01*
X146207900Y-98105415D01*
X146182310Y-97976764D01*
X146132113Y-97855578D01*
X146059238Y-97746513D01*
X145966487Y-97653762D01*
X145857422Y-97580887D01*
X145736236Y-97530690D01*
X145607585Y-97505100D01*
X145476415Y-97505100D01*
X145347764Y-97530690D01*
X145226578Y-97580887D01*
X145117513Y-97653762D01*
X145024762Y-97746513D01*
X144951887Y-97855578D01*
X144901690Y-97976764D01*
X144876100Y-98105415D01*
X144876100Y-98236585D01*
X144901690Y-98365236D01*
X144951887Y-98486422D01*
X145024762Y-98595487D01*
X145117513Y-98688238D01*
X145160708Y-98717100D01*
X144018292Y-98717100D01*
X144061487Y-98688238D01*
X144154238Y-98595487D01*
X144227113Y-98486422D01*
X144277310Y-98365236D01*
X144302900Y-98236585D01*
X144302900Y-98105415D01*
X144277310Y-97976764D01*
X144227113Y-97855578D01*
X144154238Y-97746513D01*
X144061487Y-97653762D01*
X143952422Y-97580887D01*
X143831236Y-97530690D01*
X143702585Y-97505100D01*
X143571415Y-97505100D01*
X143442764Y-97530690D01*
X143321578Y-97580887D01*
X143212513Y-97653762D01*
X143119762Y-97746513D01*
X143046887Y-97855578D01*
X142996690Y-97976764D01*
X142971100Y-98105415D01*
X142971100Y-98236585D01*
X142996690Y-98365236D01*
X143046887Y-98486422D01*
X143119762Y-98595487D01*
X143212513Y-98688238D01*
X143255708Y-98717100D01*
X142113292Y-98717100D01*
X142156487Y-98688238D01*
X142249238Y-98595487D01*
X142322113Y-98486422D01*
X142372310Y-98365236D01*
X142397900Y-98236585D01*
X142397900Y-98105415D01*
X142372310Y-97976764D01*
X142322113Y-97855578D01*
X142249238Y-97746513D01*
X142156487Y-97653762D01*
X142047422Y-97580887D01*
X141926236Y-97530690D01*
X141797585Y-97505100D01*
X141666415Y-97505100D01*
X141537764Y-97530690D01*
X141416578Y-97580887D01*
X141307513Y-97653762D01*
X141214762Y-97746513D01*
X141141887Y-97855578D01*
X141091690Y-97976764D01*
X141066100Y-98105415D01*
X141066100Y-98236585D01*
X141091690Y-98365236D01*
X141141887Y-98486422D01*
X141214762Y-98595487D01*
X141307513Y-98688238D01*
X141350708Y-98717100D01*
X140208292Y-98717100D01*
X140251487Y-98688238D01*
X140344238Y-98595487D01*
X140417113Y-98486422D01*
X140467310Y-98365236D01*
X140492900Y-98236585D01*
X140492900Y-98105415D01*
X140467310Y-97976764D01*
X140417113Y-97855578D01*
X140344238Y-97746513D01*
X140251487Y-97653762D01*
X140142422Y-97580887D01*
X140021236Y-97530690D01*
X139892585Y-97505100D01*
X139761415Y-97505100D01*
X139632764Y-97530690D01*
X139511578Y-97580887D01*
X139402513Y-97653762D01*
X139309762Y-97746513D01*
X139236887Y-97855578D01*
X139186690Y-97976764D01*
X139161100Y-98105415D01*
X139161100Y-98236585D01*
X139186690Y-98365236D01*
X139236887Y-98486422D01*
X139309762Y-98595487D01*
X139402513Y-98688238D01*
X139445708Y-98717100D01*
X138303292Y-98717100D01*
X138346487Y-98688238D01*
X138439238Y-98595487D01*
X138512113Y-98486422D01*
X138562310Y-98365236D01*
X138587900Y-98236585D01*
X138587900Y-98105415D01*
X138562310Y-97976764D01*
X138512113Y-97855578D01*
X138439238Y-97746513D01*
X138346487Y-97653762D01*
X138237422Y-97580887D01*
X138116236Y-97530690D01*
X137987585Y-97505100D01*
X137856415Y-97505100D01*
X137727764Y-97530690D01*
X137606578Y-97580887D01*
X137497513Y-97653762D01*
X137404762Y-97746513D01*
X137331887Y-97855578D01*
X137281690Y-97976764D01*
X137256100Y-98105415D01*
X137256100Y-98236585D01*
X137281690Y-98365236D01*
X137331887Y-98486422D01*
X137404762Y-98595487D01*
X137497513Y-98688238D01*
X137540708Y-98717100D01*
X136398292Y-98717100D01*
X136441487Y-98688238D01*
X136534238Y-98595487D01*
X136607113Y-98486422D01*
X136657310Y-98365236D01*
X136682900Y-98236585D01*
X136682900Y-98105415D01*
X136657310Y-97976764D01*
X136607113Y-97855578D01*
X136534238Y-97746513D01*
X136441487Y-97653762D01*
X136332422Y-97580887D01*
X136211236Y-97530690D01*
X136082585Y-97505100D01*
X135951415Y-97505100D01*
X135822764Y-97530690D01*
X135701578Y-97580887D01*
X135592513Y-97653762D01*
X135499762Y-97746513D01*
X135426887Y-97855578D01*
X135376690Y-97976764D01*
X135351100Y-98105415D01*
X135351100Y-98236585D01*
X135376690Y-98365236D01*
X135426887Y-98486422D01*
X135499762Y-98595487D01*
X135592513Y-98688238D01*
X135635708Y-98717100D01*
X134493292Y-98717100D01*
X134536487Y-98688238D01*
X134629238Y-98595487D01*
X134702113Y-98486422D01*
X134752310Y-98365236D01*
X134777900Y-98236585D01*
X134777900Y-98105415D01*
X134752310Y-97976764D01*
X134702113Y-97855578D01*
X134629238Y-97746513D01*
X134536487Y-97653762D01*
X134427422Y-97580887D01*
X134306236Y-97530690D01*
X134177585Y-97505100D01*
X134046415Y-97505100D01*
X133917764Y-97530690D01*
X133796578Y-97580887D01*
X133687513Y-97653762D01*
X133594762Y-97746513D01*
X133521887Y-97855578D01*
X133471690Y-97976764D01*
X133446100Y-98105415D01*
X133446100Y-98236585D01*
X133471690Y-98365236D01*
X133521887Y-98486422D01*
X133594762Y-98595487D01*
X133687513Y-98688238D01*
X133730708Y-98717100D01*
X132422900Y-98717100D01*
X132422900Y-97552074D01*
X132467921Y-97597095D01*
X132547034Y-97517982D01*
X132562375Y-97589465D01*
X132754054Y-97650684D01*
X132953993Y-97673332D01*
X133154509Y-97656539D01*
X133347897Y-97600950D01*
X133375625Y-97589465D01*
X133414081Y-97410279D01*
X133192990Y-97189188D01*
X152114100Y-97189188D01*
X152114100Y-97290812D01*
X152133926Y-97390482D01*
X152172816Y-97484370D01*
X152229274Y-97568867D01*
X152301133Y-97640726D01*
X152385630Y-97697184D01*
X152479518Y-97736074D01*
X152579188Y-97755900D01*
X152680812Y-97755900D01*
X152780482Y-97736074D01*
X152874370Y-97697184D01*
X152958867Y-97640726D01*
X153030726Y-97568867D01*
X153087184Y-97484370D01*
X153126074Y-97390482D01*
X153145900Y-97290812D01*
X153145900Y-97189188D01*
X153126074Y-97089518D01*
X153087184Y-96995630D01*
X153030726Y-96911133D01*
X152958867Y-96839274D01*
X152874370Y-96782816D01*
X152780482Y-96743926D01*
X152680812Y-96724100D01*
X152579188Y-96724100D01*
X152479518Y-96743926D01*
X152385630Y-96782816D01*
X152301133Y-96839274D01*
X152229274Y-96911133D01*
X152172816Y-96995630D01*
X152133926Y-97089518D01*
X152114100Y-97189188D01*
X133192990Y-97189188D01*
X132969000Y-96965198D01*
X132889451Y-97044748D01*
X132571253Y-96726550D01*
X132650802Y-96647000D01*
X133287198Y-96647000D01*
X133732279Y-97092081D01*
X133911465Y-97053625D01*
X133972684Y-96861946D01*
X133995332Y-96662007D01*
X133979597Y-96474113D01*
X137456100Y-96474113D01*
X137456100Y-96565887D01*
X137474005Y-96655898D01*
X137509125Y-96740686D01*
X137560112Y-96816994D01*
X137625006Y-96881888D01*
X137701314Y-96932875D01*
X137786102Y-96967995D01*
X137876113Y-96985900D01*
X137967887Y-96985900D01*
X138057898Y-96967995D01*
X138142686Y-96932875D01*
X138218994Y-96881888D01*
X138283888Y-96816994D01*
X138334875Y-96740686D01*
X138369995Y-96655898D01*
X138380473Y-96603221D01*
X143700500Y-96603221D01*
X143700500Y-96690779D01*
X143717582Y-96776656D01*
X143751089Y-96857550D01*
X143799734Y-96930352D01*
X143861648Y-96992266D01*
X143934450Y-97040911D01*
X144015344Y-97074418D01*
X144101221Y-97091500D01*
X144188779Y-97091500D01*
X144274656Y-97074418D01*
X144355550Y-97040911D01*
X144428352Y-96992266D01*
X144490266Y-96930352D01*
X144538911Y-96857550D01*
X144572418Y-96776656D01*
X144589500Y-96690779D01*
X144589500Y-96603221D01*
X144572418Y-96517344D01*
X144538911Y-96436450D01*
X144490266Y-96363648D01*
X144428352Y-96301734D01*
X144355550Y-96253089D01*
X144274656Y-96219582D01*
X144188779Y-96202500D01*
X144101221Y-96202500D01*
X144015344Y-96219582D01*
X143934450Y-96253089D01*
X143861648Y-96301734D01*
X143799734Y-96363648D01*
X143751089Y-96436450D01*
X143717582Y-96517344D01*
X143700500Y-96603221D01*
X138380473Y-96603221D01*
X138387900Y-96565887D01*
X138387900Y-96474113D01*
X138369995Y-96384102D01*
X138334875Y-96299314D01*
X138283888Y-96223006D01*
X138218994Y-96158112D01*
X138142686Y-96107125D01*
X138057898Y-96072005D01*
X137967887Y-96054100D01*
X137876113Y-96054100D01*
X137786102Y-96072005D01*
X137701314Y-96107125D01*
X137625006Y-96158112D01*
X137560112Y-96223006D01*
X137509125Y-96299314D01*
X137474005Y-96384102D01*
X137456100Y-96474113D01*
X133979597Y-96474113D01*
X133978539Y-96461491D01*
X133922950Y-96268103D01*
X133911465Y-96240375D01*
X133732279Y-96201919D01*
X133287198Y-96647000D01*
X132650802Y-96647000D01*
X132571253Y-96567451D01*
X132889451Y-96249253D01*
X132969000Y-96328802D01*
X133414081Y-95883721D01*
X133375625Y-95704535D01*
X133183946Y-95643316D01*
X132984007Y-95620668D01*
X132783491Y-95637461D01*
X132590103Y-95693050D01*
X132562375Y-95704535D01*
X132547034Y-95776018D01*
X132467921Y-95696905D01*
X132422900Y-95741926D01*
X132422900Y-95079221D01*
X139763500Y-95079221D01*
X139763500Y-95166779D01*
X139780582Y-95252656D01*
X139814089Y-95333550D01*
X139862734Y-95406352D01*
X139924648Y-95468266D01*
X139997450Y-95516911D01*
X140078344Y-95550418D01*
X140164221Y-95567500D01*
X140251779Y-95567500D01*
X140337656Y-95550418D01*
X140418550Y-95516911D01*
X140491352Y-95468266D01*
X140553266Y-95406352D01*
X140601911Y-95333550D01*
X140635418Y-95252656D01*
X140652500Y-95166779D01*
X140652500Y-95079221D01*
X140855700Y-95079221D01*
X140855700Y-95166779D01*
X140872782Y-95252656D01*
X140906289Y-95333550D01*
X140954934Y-95406352D01*
X141016848Y-95468266D01*
X141089650Y-95516911D01*
X141170544Y-95550418D01*
X141256421Y-95567500D01*
X141343979Y-95567500D01*
X141429856Y-95550418D01*
X141510750Y-95516911D01*
X141583552Y-95468266D01*
X141645466Y-95406352D01*
X141694111Y-95333550D01*
X141727618Y-95252656D01*
X141737273Y-95204113D01*
X142155100Y-95204113D01*
X142155100Y-95295887D01*
X142173005Y-95385898D01*
X142208125Y-95470686D01*
X142259112Y-95546994D01*
X142324006Y-95611888D01*
X142400314Y-95662875D01*
X142485102Y-95697995D01*
X142575113Y-95715900D01*
X142666887Y-95715900D01*
X142756898Y-95697995D01*
X142841686Y-95662875D01*
X142917994Y-95611888D01*
X142982888Y-95546994D01*
X143033875Y-95470686D01*
X143068995Y-95385898D01*
X143086900Y-95295887D01*
X143086900Y-95204113D01*
X143068995Y-95114102D01*
X143033875Y-95029314D01*
X142982888Y-94953006D01*
X142917994Y-94888112D01*
X142841686Y-94837125D01*
X142756898Y-94802005D01*
X142666887Y-94784100D01*
X142575113Y-94784100D01*
X142485102Y-94802005D01*
X142400314Y-94837125D01*
X142324006Y-94888112D01*
X142259112Y-94953006D01*
X142208125Y-95029314D01*
X142173005Y-95114102D01*
X142155100Y-95204113D01*
X141737273Y-95204113D01*
X141744700Y-95166779D01*
X141744700Y-95079221D01*
X141727618Y-94993344D01*
X141694111Y-94912450D01*
X141645466Y-94839648D01*
X141583552Y-94777734D01*
X141510750Y-94729089D01*
X141429856Y-94695582D01*
X141343979Y-94678500D01*
X141256421Y-94678500D01*
X141170544Y-94695582D01*
X141089650Y-94729089D01*
X141016848Y-94777734D01*
X140954934Y-94839648D01*
X140906289Y-94912450D01*
X140872782Y-94993344D01*
X140855700Y-95079221D01*
X140652500Y-95079221D01*
X140635418Y-94993344D01*
X140601911Y-94912450D01*
X140553266Y-94839648D01*
X140491352Y-94777734D01*
X140418550Y-94729089D01*
X140337656Y-94695582D01*
X140251779Y-94678500D01*
X140164221Y-94678500D01*
X140078344Y-94695582D01*
X139997450Y-94729089D01*
X139924648Y-94777734D01*
X139862734Y-94839648D01*
X139814089Y-94912450D01*
X139780582Y-94993344D01*
X139763500Y-95079221D01*
X132422900Y-95079221D01*
X132422900Y-92918113D01*
X133773100Y-92918113D01*
X133773100Y-93009887D01*
X133791005Y-93099898D01*
X133826125Y-93184686D01*
X133877112Y-93260994D01*
X133942006Y-93325888D01*
X134018314Y-93376875D01*
X134103102Y-93411995D01*
X134193113Y-93429900D01*
X134284887Y-93429900D01*
X134374898Y-93411995D01*
X134459686Y-93376875D01*
X134535994Y-93325888D01*
X134600888Y-93260994D01*
X134651875Y-93184686D01*
X134686995Y-93099898D01*
X134704900Y-93009887D01*
X134704900Y-92918113D01*
X136059100Y-92918113D01*
X136059100Y-93009887D01*
X136077005Y-93099898D01*
X136112125Y-93184686D01*
X136163112Y-93260994D01*
X136228006Y-93325888D01*
X136304314Y-93376875D01*
X136389102Y-93411995D01*
X136479113Y-93429900D01*
X136570887Y-93429900D01*
X136660898Y-93411995D01*
X136745686Y-93376875D01*
X136821994Y-93325888D01*
X136886888Y-93260994D01*
X136937875Y-93184686D01*
X136972995Y-93099898D01*
X136990900Y-93009887D01*
X136990900Y-92918113D01*
X137202100Y-92918113D01*
X137202100Y-93009887D01*
X137220005Y-93099898D01*
X137255125Y-93184686D01*
X137306112Y-93260994D01*
X137371006Y-93325888D01*
X137447314Y-93376875D01*
X137532102Y-93411995D01*
X137622113Y-93429900D01*
X137713887Y-93429900D01*
X137803898Y-93411995D01*
X137888686Y-93376875D01*
X137964994Y-93325888D01*
X138029888Y-93260994D01*
X138080875Y-93184686D01*
X138115995Y-93099898D01*
X138133900Y-93009887D01*
X138133900Y-92918113D01*
X138115995Y-92828102D01*
X138080875Y-92743314D01*
X138029888Y-92667006D01*
X137964994Y-92602112D01*
X137888686Y-92551125D01*
X137803898Y-92516005D01*
X137713887Y-92498100D01*
X137622113Y-92498100D01*
X137532102Y-92516005D01*
X137447314Y-92551125D01*
X137371006Y-92602112D01*
X137306112Y-92667006D01*
X137255125Y-92743314D01*
X137220005Y-92828102D01*
X137202100Y-92918113D01*
X136990900Y-92918113D01*
X136972995Y-92828102D01*
X136937875Y-92743314D01*
X136886888Y-92667006D01*
X136821994Y-92602112D01*
X136745686Y-92551125D01*
X136660898Y-92516005D01*
X136570887Y-92498100D01*
X136479113Y-92498100D01*
X136389102Y-92516005D01*
X136304314Y-92551125D01*
X136228006Y-92602112D01*
X136163112Y-92667006D01*
X136112125Y-92743314D01*
X136077005Y-92828102D01*
X136059100Y-92918113D01*
X134704900Y-92918113D01*
X134686995Y-92828102D01*
X134651875Y-92743314D01*
X134600888Y-92667006D01*
X134535994Y-92602112D01*
X134459686Y-92551125D01*
X134374898Y-92516005D01*
X134284887Y-92498100D01*
X134193113Y-92498100D01*
X134103102Y-92516005D01*
X134018314Y-92551125D01*
X133942006Y-92602112D01*
X133877112Y-92667006D01*
X133826125Y-92743314D01*
X133791005Y-92828102D01*
X133773100Y-92918113D01*
X132422900Y-92918113D01*
X132422900Y-92183621D01*
X140220700Y-92183621D01*
X140220700Y-92271179D01*
X140237782Y-92357056D01*
X140271289Y-92437950D01*
X140319934Y-92510752D01*
X140379482Y-92570300D01*
X140319934Y-92629848D01*
X140271289Y-92702650D01*
X140237782Y-92783544D01*
X140220700Y-92869421D01*
X140220700Y-92956979D01*
X140237782Y-93042856D01*
X140271289Y-93123750D01*
X140319934Y-93196552D01*
X140381848Y-93258466D01*
X140454650Y-93307111D01*
X140535544Y-93340618D01*
X140621421Y-93357700D01*
X140708979Y-93357700D01*
X140794856Y-93340618D01*
X140875750Y-93307111D01*
X140876752Y-93306441D01*
X140906289Y-93377750D01*
X140954934Y-93450552D01*
X141016848Y-93512466D01*
X141089650Y-93561111D01*
X141170544Y-93594618D01*
X141256421Y-93611700D01*
X141343979Y-93611700D01*
X141429856Y-93594618D01*
X141510750Y-93561111D01*
X141583552Y-93512466D01*
X141645466Y-93450552D01*
X141664286Y-93422386D01*
X141666134Y-93425152D01*
X141728048Y-93487066D01*
X141800850Y-93535711D01*
X141881744Y-93569218D01*
X141967621Y-93586300D01*
X142055179Y-93586300D01*
X142141056Y-93569218D01*
X142221950Y-93535711D01*
X142294752Y-93487066D01*
X142356666Y-93425152D01*
X142405311Y-93352350D01*
X142438818Y-93271456D01*
X142455900Y-93185579D01*
X142455900Y-93098021D01*
X142438818Y-93012144D01*
X142405311Y-92931250D01*
X142356666Y-92858448D01*
X142294752Y-92796534D01*
X142221950Y-92747889D01*
X142141056Y-92714382D01*
X142055179Y-92697300D01*
X141967621Y-92697300D01*
X141881744Y-92714382D01*
X141800850Y-92747889D01*
X141728048Y-92796534D01*
X141666134Y-92858448D01*
X141647314Y-92886614D01*
X141645466Y-92883848D01*
X141583552Y-92821934D01*
X141510750Y-92773289D01*
X141429856Y-92739782D01*
X141343979Y-92722700D01*
X141256421Y-92722700D01*
X141170544Y-92739782D01*
X141089650Y-92773289D01*
X141088648Y-92773959D01*
X141059111Y-92702650D01*
X141010466Y-92629848D01*
X140950918Y-92570300D01*
X141010466Y-92510752D01*
X141059111Y-92437950D01*
X141092618Y-92357056D01*
X141109700Y-92271179D01*
X141109700Y-92183621D01*
X141104229Y-92156113D01*
X143679100Y-92156113D01*
X143679100Y-92247887D01*
X143697005Y-92337898D01*
X143732125Y-92422686D01*
X143783112Y-92498994D01*
X143848006Y-92563888D01*
X143924314Y-92614875D01*
X144000664Y-92646500D01*
X143924314Y-92678125D01*
X143848006Y-92729112D01*
X143783112Y-92794006D01*
X143732125Y-92870314D01*
X143697005Y-92955102D01*
X143679100Y-93045113D01*
X143679100Y-93136887D01*
X143697005Y-93226898D01*
X143732125Y-93311686D01*
X143783112Y-93387994D01*
X143848006Y-93452888D01*
X143924314Y-93503875D01*
X144009102Y-93538995D01*
X144099113Y-93556900D01*
X144190887Y-93556900D01*
X144280898Y-93538995D01*
X144365686Y-93503875D01*
X144441994Y-93452888D01*
X144506888Y-93387994D01*
X144557875Y-93311686D01*
X144592995Y-93226898D01*
X144610900Y-93136887D01*
X144610900Y-93045113D01*
X144592995Y-92955102D01*
X144557875Y-92870314D01*
X144506888Y-92794006D01*
X144441994Y-92729112D01*
X144365686Y-92678125D01*
X144289336Y-92646500D01*
X144365686Y-92614875D01*
X144441994Y-92563888D01*
X144506888Y-92498994D01*
X144557875Y-92422686D01*
X144562209Y-92412221D01*
X145732500Y-92412221D01*
X145732500Y-92499779D01*
X145749582Y-92585656D01*
X145783089Y-92666550D01*
X145831734Y-92739352D01*
X145893648Y-92801266D01*
X145947127Y-92837000D01*
X145893648Y-92872734D01*
X145831734Y-92934648D01*
X145783089Y-93007450D01*
X145749582Y-93088344D01*
X145732500Y-93174221D01*
X145732500Y-93261779D01*
X145749582Y-93347656D01*
X145783089Y-93428550D01*
X145831734Y-93501352D01*
X145893648Y-93563266D01*
X145966450Y-93611911D01*
X146047344Y-93645418D01*
X146133221Y-93662500D01*
X146220779Y-93662500D01*
X146306656Y-93645418D01*
X146387550Y-93611911D01*
X146460352Y-93563266D01*
X146522266Y-93501352D01*
X146570911Y-93428550D01*
X146604418Y-93347656D01*
X146619287Y-93272905D01*
X146655648Y-93309266D01*
X146728450Y-93357911D01*
X146809344Y-93391418D01*
X146895221Y-93408500D01*
X146982779Y-93408500D01*
X147068656Y-93391418D01*
X147149550Y-93357911D01*
X147222352Y-93309266D01*
X147284266Y-93247352D01*
X147332911Y-93174550D01*
X147366418Y-93093656D01*
X147383500Y-93007779D01*
X147383500Y-92920221D01*
X147378603Y-92895603D01*
X147403221Y-92900500D01*
X147490779Y-92900500D01*
X147576656Y-92883418D01*
X147657550Y-92849911D01*
X147730352Y-92801266D01*
X147792266Y-92739352D01*
X147840911Y-92666550D01*
X147874418Y-92585656D01*
X147891500Y-92499779D01*
X147891500Y-92412221D01*
X147874418Y-92326344D01*
X147840911Y-92245450D01*
X147792266Y-92172648D01*
X147730352Y-92110734D01*
X147657550Y-92062089D01*
X147576656Y-92028582D01*
X147490779Y-92011500D01*
X147403221Y-92011500D01*
X147317344Y-92028582D01*
X147236450Y-92062089D01*
X147163648Y-92110734D01*
X147101734Y-92172648D01*
X147053089Y-92245450D01*
X147019582Y-92326344D01*
X147002500Y-92412221D01*
X147002500Y-92499779D01*
X147007397Y-92524397D01*
X146982779Y-92519500D01*
X146895221Y-92519500D01*
X146809344Y-92536582D01*
X146728450Y-92570089D01*
X146655648Y-92618734D01*
X146593734Y-92680648D01*
X146545089Y-92753450D01*
X146511582Y-92834344D01*
X146496713Y-92909095D01*
X146460352Y-92872734D01*
X146406873Y-92837000D01*
X146460352Y-92801266D01*
X146522266Y-92739352D01*
X146570911Y-92666550D01*
X146604418Y-92585656D01*
X146621500Y-92499779D01*
X146621500Y-92412221D01*
X146604418Y-92326344D01*
X146570911Y-92245450D01*
X146522266Y-92172648D01*
X146460352Y-92110734D01*
X146460007Y-92110503D01*
X146514550Y-92087911D01*
X146587352Y-92039266D01*
X146649266Y-91977352D01*
X146697911Y-91904550D01*
X146731418Y-91823656D01*
X146748500Y-91737779D01*
X146748500Y-91650221D01*
X146731418Y-91564344D01*
X146697911Y-91483450D01*
X146649266Y-91410648D01*
X146587352Y-91348734D01*
X146514550Y-91300089D01*
X146433656Y-91266582D01*
X146347779Y-91249500D01*
X146260221Y-91249500D01*
X146174344Y-91266582D01*
X146093450Y-91300089D01*
X146020648Y-91348734D01*
X145958734Y-91410648D01*
X145910089Y-91483450D01*
X145876582Y-91564344D01*
X145859500Y-91650221D01*
X145859500Y-91737779D01*
X145876582Y-91823656D01*
X145910089Y-91904550D01*
X145958734Y-91977352D01*
X146020648Y-92039266D01*
X146020993Y-92039497D01*
X145966450Y-92062089D01*
X145893648Y-92110734D01*
X145831734Y-92172648D01*
X145783089Y-92245450D01*
X145749582Y-92326344D01*
X145732500Y-92412221D01*
X144562209Y-92412221D01*
X144592995Y-92337898D01*
X144610900Y-92247887D01*
X144610900Y-92156113D01*
X144592995Y-92066102D01*
X144557875Y-91981314D01*
X144506888Y-91905006D01*
X144441994Y-91840112D01*
X144365686Y-91789125D01*
X144280898Y-91754005D01*
X144190887Y-91736100D01*
X144099113Y-91736100D01*
X144009102Y-91754005D01*
X143924314Y-91789125D01*
X143848006Y-91840112D01*
X143783112Y-91905006D01*
X143732125Y-91981314D01*
X143697005Y-92066102D01*
X143679100Y-92156113D01*
X141104229Y-92156113D01*
X141092618Y-92097744D01*
X141059111Y-92016850D01*
X141010466Y-91944048D01*
X140948552Y-91882134D01*
X140875750Y-91833489D01*
X140794856Y-91799982D01*
X140708979Y-91782900D01*
X140621421Y-91782900D01*
X140535544Y-91799982D01*
X140454650Y-91833489D01*
X140381848Y-91882134D01*
X140319934Y-91944048D01*
X140271289Y-92016850D01*
X140237782Y-92097744D01*
X140220700Y-92183621D01*
X132422900Y-92183621D01*
X132422900Y-91003264D01*
X133673100Y-91003264D01*
X133673100Y-91114736D01*
X133694847Y-91224067D01*
X133737506Y-91327054D01*
X133799437Y-91419740D01*
X133878260Y-91498563D01*
X133970946Y-91560494D01*
X134073933Y-91603153D01*
X134183264Y-91624900D01*
X134294736Y-91624900D01*
X134404067Y-91603153D01*
X134507054Y-91560494D01*
X134599740Y-91498563D01*
X134678563Y-91419740D01*
X134740494Y-91327054D01*
X134783153Y-91224067D01*
X134804900Y-91114736D01*
X134804900Y-91003264D01*
X134783153Y-90893933D01*
X134740494Y-90790946D01*
X134678563Y-90698260D01*
X134599740Y-90619437D01*
X134507054Y-90557506D01*
X134503952Y-90556221D01*
X138155500Y-90556221D01*
X138155500Y-90643779D01*
X138172582Y-90729656D01*
X138206089Y-90810550D01*
X138254734Y-90883352D01*
X138316648Y-90945266D01*
X138389450Y-90993911D01*
X138470344Y-91027418D01*
X138556221Y-91044500D01*
X138643779Y-91044500D01*
X138729656Y-91027418D01*
X138810550Y-90993911D01*
X138883352Y-90945266D01*
X138945266Y-90883352D01*
X138992928Y-90812021D01*
X140195300Y-90812021D01*
X140195300Y-90899579D01*
X140212382Y-90985456D01*
X140245889Y-91066350D01*
X140294534Y-91139152D01*
X140356448Y-91201066D01*
X140429250Y-91249711D01*
X140510144Y-91283218D01*
X140596021Y-91300300D01*
X140683579Y-91300300D01*
X140769456Y-91283218D01*
X140850350Y-91249711D01*
X140923152Y-91201066D01*
X140985066Y-91139152D01*
X141033711Y-91066350D01*
X141044368Y-91040621D01*
X141236700Y-91040621D01*
X141236700Y-91128179D01*
X141253782Y-91214056D01*
X141287289Y-91294950D01*
X141335934Y-91367752D01*
X141397848Y-91429666D01*
X141470650Y-91478311D01*
X141551544Y-91511818D01*
X141637421Y-91528900D01*
X141724979Y-91528900D01*
X141810856Y-91511818D01*
X141891750Y-91478311D01*
X141964552Y-91429666D01*
X142023397Y-91370821D01*
X142684500Y-91370821D01*
X142684500Y-91458379D01*
X142701582Y-91544256D01*
X142735089Y-91625150D01*
X142783734Y-91697952D01*
X142845648Y-91759866D01*
X142918450Y-91808511D01*
X142999344Y-91842018D01*
X143085221Y-91859100D01*
X143172779Y-91859100D01*
X143258656Y-91842018D01*
X143339550Y-91808511D01*
X143412352Y-91759866D01*
X143474266Y-91697952D01*
X143522911Y-91625150D01*
X143556418Y-91544256D01*
X143573500Y-91458379D01*
X143573500Y-91370821D01*
X143556418Y-91284944D01*
X143522911Y-91204050D01*
X143474266Y-91131248D01*
X143412352Y-91069334D01*
X143339550Y-91020689D01*
X143258656Y-90987182D01*
X143172779Y-90970100D01*
X143085221Y-90970100D01*
X142999344Y-90987182D01*
X142918450Y-91020689D01*
X142845648Y-91069334D01*
X142783734Y-91131248D01*
X142735089Y-91204050D01*
X142701582Y-91284944D01*
X142684500Y-91370821D01*
X142023397Y-91370821D01*
X142026466Y-91367752D01*
X142075111Y-91294950D01*
X142108618Y-91214056D01*
X142125700Y-91128179D01*
X142125700Y-91040621D01*
X142108618Y-90954744D01*
X142075111Y-90873850D01*
X142026466Y-90801048D01*
X141964552Y-90739134D01*
X141891750Y-90690489D01*
X141810856Y-90656982D01*
X141724979Y-90639900D01*
X141637421Y-90639900D01*
X141551544Y-90656982D01*
X141470650Y-90690489D01*
X141397848Y-90739134D01*
X141335934Y-90801048D01*
X141287289Y-90873850D01*
X141253782Y-90954744D01*
X141236700Y-91040621D01*
X141044368Y-91040621D01*
X141067218Y-90985456D01*
X141084300Y-90899579D01*
X141084300Y-90812021D01*
X141067218Y-90726144D01*
X141033711Y-90645250D01*
X140985066Y-90572448D01*
X140923152Y-90510534D01*
X140850350Y-90461889D01*
X140769456Y-90428382D01*
X140683579Y-90411300D01*
X140596021Y-90411300D01*
X140510144Y-90428382D01*
X140429250Y-90461889D01*
X140356448Y-90510534D01*
X140294534Y-90572448D01*
X140245889Y-90645250D01*
X140212382Y-90726144D01*
X140195300Y-90812021D01*
X138992928Y-90812021D01*
X138993911Y-90810550D01*
X139027418Y-90729656D01*
X139044500Y-90643779D01*
X139044500Y-90556221D01*
X139027418Y-90470344D01*
X138993911Y-90389450D01*
X138945266Y-90316648D01*
X138883352Y-90254734D01*
X138810550Y-90206089D01*
X138729656Y-90172582D01*
X138643779Y-90155500D01*
X138556221Y-90155500D01*
X138470344Y-90172582D01*
X138389450Y-90206089D01*
X138316648Y-90254734D01*
X138254734Y-90316648D01*
X138206089Y-90389450D01*
X138172582Y-90470344D01*
X138155500Y-90556221D01*
X134503952Y-90556221D01*
X134404067Y-90514847D01*
X134294736Y-90493100D01*
X134183264Y-90493100D01*
X134073933Y-90514847D01*
X133970946Y-90557506D01*
X133878260Y-90619437D01*
X133799437Y-90698260D01*
X133737506Y-90790946D01*
X133694847Y-90893933D01*
X133673100Y-91003264D01*
X132422900Y-91003264D01*
X132422900Y-89552613D01*
X133709600Y-89552613D01*
X133709600Y-89644387D01*
X133727505Y-89734398D01*
X133762625Y-89819186D01*
X133813612Y-89895494D01*
X133878506Y-89960388D01*
X133954814Y-90011375D01*
X134039602Y-90046495D01*
X134129613Y-90064400D01*
X134221387Y-90064400D01*
X134311398Y-90046495D01*
X134396186Y-90011375D01*
X134472494Y-89960388D01*
X134537388Y-89895494D01*
X134588375Y-89819186D01*
X134623495Y-89734398D01*
X134641400Y-89644387D01*
X134641400Y-89616113D01*
X136313100Y-89616113D01*
X136313100Y-89707887D01*
X136331005Y-89797898D01*
X136366125Y-89882686D01*
X136417112Y-89958994D01*
X136482006Y-90023888D01*
X136558314Y-90074875D01*
X136643102Y-90109995D01*
X136733113Y-90127900D01*
X136824887Y-90127900D01*
X136914898Y-90109995D01*
X136999686Y-90074875D01*
X137075994Y-90023888D01*
X137140888Y-89958994D01*
X137191875Y-89882686D01*
X137226995Y-89797898D01*
X137244900Y-89707887D01*
X137244900Y-89616113D01*
X137242933Y-89606221D01*
X141055500Y-89606221D01*
X141055500Y-89693779D01*
X141072582Y-89779656D01*
X141106089Y-89860550D01*
X141154734Y-89933352D01*
X141216648Y-89995266D01*
X141289450Y-90043911D01*
X141370344Y-90077418D01*
X141456221Y-90094500D01*
X141543779Y-90094500D01*
X141629656Y-90077418D01*
X141710550Y-90043911D01*
X141783352Y-89995266D01*
X141825000Y-89953618D01*
X141866648Y-89995266D01*
X141939450Y-90043911D01*
X142020344Y-90077418D01*
X142106221Y-90094500D01*
X142193779Y-90094500D01*
X142279656Y-90077418D01*
X142360550Y-90043911D01*
X142433352Y-89995266D01*
X142495266Y-89933352D01*
X142536112Y-89872221D01*
X143700500Y-89872221D01*
X143700500Y-89959779D01*
X143717582Y-90045656D01*
X143751089Y-90126550D01*
X143799734Y-90199352D01*
X143861648Y-90261266D01*
X143915127Y-90297000D01*
X143861648Y-90332734D01*
X143799734Y-90394648D01*
X143751089Y-90467450D01*
X143717582Y-90548344D01*
X143700500Y-90634221D01*
X143700500Y-90721779D01*
X143717582Y-90807656D01*
X143751089Y-90888550D01*
X143799734Y-90961352D01*
X143861648Y-91023266D01*
X143934450Y-91071911D01*
X144015344Y-91105418D01*
X144101221Y-91122500D01*
X144188779Y-91122500D01*
X144274656Y-91105418D01*
X144355550Y-91071911D01*
X144428352Y-91023266D01*
X144490266Y-90961352D01*
X144538911Y-90888550D01*
X144572418Y-90807656D01*
X144589500Y-90721779D01*
X144589500Y-90634221D01*
X144589081Y-90632113D01*
X153712100Y-90632113D01*
X153712100Y-90723887D01*
X153730005Y-90813898D01*
X153765125Y-90898686D01*
X153816112Y-90974994D01*
X153881006Y-91039888D01*
X153957314Y-91090875D01*
X154042102Y-91125995D01*
X154132113Y-91143900D01*
X154223887Y-91143900D01*
X154313898Y-91125995D01*
X154398686Y-91090875D01*
X154474994Y-91039888D01*
X154539888Y-90974994D01*
X154590875Y-90898686D01*
X154625995Y-90813898D01*
X154643900Y-90723887D01*
X154643900Y-90632113D01*
X154625995Y-90542102D01*
X154590875Y-90457314D01*
X154539888Y-90381006D01*
X154474994Y-90316112D01*
X154398686Y-90265125D01*
X154313898Y-90230005D01*
X154223887Y-90212100D01*
X154132113Y-90212100D01*
X154042102Y-90230005D01*
X153957314Y-90265125D01*
X153881006Y-90316112D01*
X153816112Y-90381006D01*
X153765125Y-90457314D01*
X153730005Y-90542102D01*
X153712100Y-90632113D01*
X144589081Y-90632113D01*
X144572418Y-90548344D01*
X144538911Y-90467450D01*
X144490266Y-90394648D01*
X144428352Y-90332734D01*
X144374873Y-90297000D01*
X144428352Y-90261266D01*
X144490266Y-90199352D01*
X144538911Y-90126550D01*
X144572418Y-90045656D01*
X144589500Y-89959779D01*
X144589500Y-89872221D01*
X144572418Y-89786344D01*
X144538911Y-89705450D01*
X144490266Y-89632648D01*
X144475839Y-89618221D01*
X145732500Y-89618221D01*
X145732500Y-89705779D01*
X145749582Y-89791656D01*
X145783089Y-89872550D01*
X145831734Y-89945352D01*
X145893648Y-90007266D01*
X145966450Y-90055911D01*
X146047344Y-90089418D01*
X146133221Y-90106500D01*
X146220779Y-90106500D01*
X146306656Y-90089418D01*
X146387550Y-90055911D01*
X146460352Y-90007266D01*
X146522266Y-89945352D01*
X146570911Y-89872550D01*
X146604418Y-89791656D01*
X146621500Y-89705779D01*
X146621500Y-89618221D01*
X146621081Y-89616113D01*
X153712100Y-89616113D01*
X153712100Y-89707887D01*
X153730005Y-89797898D01*
X153765125Y-89882686D01*
X153816112Y-89958994D01*
X153881006Y-90023888D01*
X153957314Y-90074875D01*
X154042102Y-90109995D01*
X154132113Y-90127900D01*
X154223887Y-90127900D01*
X154313898Y-90109995D01*
X154398686Y-90074875D01*
X154474994Y-90023888D01*
X154539888Y-89958994D01*
X154590875Y-89882686D01*
X154625995Y-89797898D01*
X154643900Y-89707887D01*
X154643900Y-89616113D01*
X154625995Y-89526102D01*
X154590875Y-89441314D01*
X154539888Y-89365006D01*
X154474994Y-89300112D01*
X154398686Y-89249125D01*
X154313898Y-89214005D01*
X154223887Y-89196100D01*
X154132113Y-89196100D01*
X154042102Y-89214005D01*
X153957314Y-89249125D01*
X153881006Y-89300112D01*
X153816112Y-89365006D01*
X153765125Y-89441314D01*
X153730005Y-89526102D01*
X153712100Y-89616113D01*
X146621081Y-89616113D01*
X146604418Y-89532344D01*
X146570911Y-89451450D01*
X146522266Y-89378648D01*
X146460352Y-89316734D01*
X146387550Y-89268089D01*
X146306656Y-89234582D01*
X146220779Y-89217500D01*
X146133221Y-89217500D01*
X146047344Y-89234582D01*
X145966450Y-89268089D01*
X145893648Y-89316734D01*
X145831734Y-89378648D01*
X145783089Y-89451450D01*
X145749582Y-89532344D01*
X145732500Y-89618221D01*
X144475839Y-89618221D01*
X144428352Y-89570734D01*
X144355550Y-89522089D01*
X144274656Y-89488582D01*
X144188779Y-89471500D01*
X144101221Y-89471500D01*
X144015344Y-89488582D01*
X143934450Y-89522089D01*
X143861648Y-89570734D01*
X143799734Y-89632648D01*
X143751089Y-89705450D01*
X143717582Y-89786344D01*
X143700500Y-89872221D01*
X142536112Y-89872221D01*
X142543911Y-89860550D01*
X142577418Y-89779656D01*
X142594500Y-89693779D01*
X142594500Y-89606221D01*
X142577418Y-89520344D01*
X142543911Y-89439450D01*
X142495266Y-89366648D01*
X142433352Y-89304734D01*
X142360550Y-89256089D01*
X142279656Y-89222582D01*
X142193779Y-89205500D01*
X142106221Y-89205500D01*
X142020344Y-89222582D01*
X141939450Y-89256089D01*
X141866648Y-89304734D01*
X141825000Y-89346382D01*
X141783352Y-89304734D01*
X141710550Y-89256089D01*
X141629656Y-89222582D01*
X141543779Y-89205500D01*
X141456221Y-89205500D01*
X141370344Y-89222582D01*
X141289450Y-89256089D01*
X141216648Y-89304734D01*
X141154734Y-89366648D01*
X141106089Y-89439450D01*
X141072582Y-89520344D01*
X141055500Y-89606221D01*
X137242933Y-89606221D01*
X137226995Y-89526102D01*
X137191875Y-89441314D01*
X137140888Y-89365006D01*
X137075994Y-89300112D01*
X136999686Y-89249125D01*
X136914898Y-89214005D01*
X136824887Y-89196100D01*
X136733113Y-89196100D01*
X136643102Y-89214005D01*
X136558314Y-89249125D01*
X136482006Y-89300112D01*
X136417112Y-89365006D01*
X136366125Y-89441314D01*
X136331005Y-89526102D01*
X136313100Y-89616113D01*
X134641400Y-89616113D01*
X134641400Y-89552613D01*
X134623495Y-89462602D01*
X134588375Y-89377814D01*
X134537388Y-89301506D01*
X134472494Y-89236612D01*
X134396186Y-89185625D01*
X134311398Y-89150505D01*
X134221387Y-89132600D01*
X134129613Y-89132600D01*
X134039602Y-89150505D01*
X133954814Y-89185625D01*
X133878506Y-89236612D01*
X133813612Y-89301506D01*
X133762625Y-89377814D01*
X133727505Y-89462602D01*
X133709600Y-89552613D01*
X132422900Y-89552613D01*
X132422900Y-88854113D01*
X138091100Y-88854113D01*
X138091100Y-88945887D01*
X138109005Y-89035898D01*
X138144125Y-89120686D01*
X138195112Y-89196994D01*
X138260006Y-89261888D01*
X138336314Y-89312875D01*
X138421102Y-89347995D01*
X138511113Y-89365900D01*
X138602887Y-89365900D01*
X138692898Y-89347995D01*
X138777686Y-89312875D01*
X138853994Y-89261888D01*
X138918888Y-89196994D01*
X138969875Y-89120686D01*
X139004995Y-89035898D01*
X139022900Y-88945887D01*
X139022900Y-88854113D01*
X139004995Y-88764102D01*
X138969875Y-88679314D01*
X138918888Y-88603006D01*
X138853994Y-88538112D01*
X138777686Y-88487125D01*
X138692898Y-88452005D01*
X138602887Y-88434100D01*
X138511113Y-88434100D01*
X138421102Y-88452005D01*
X138336314Y-88487125D01*
X138260006Y-88538112D01*
X138195112Y-88603006D01*
X138144125Y-88679314D01*
X138109005Y-88764102D01*
X138091100Y-88854113D01*
X132422900Y-88854113D01*
X132422900Y-87764021D01*
X133565900Y-87764021D01*
X133565900Y-87851579D01*
X133582982Y-87937456D01*
X133616489Y-88018350D01*
X133665134Y-88091152D01*
X133727048Y-88153066D01*
X133799850Y-88201711D01*
X133880744Y-88235218D01*
X133966621Y-88252300D01*
X134054179Y-88252300D01*
X134140056Y-88235218D01*
X134220950Y-88201711D01*
X134293752Y-88153066D01*
X134355666Y-88091152D01*
X134404311Y-88018350D01*
X134437818Y-87937456D01*
X134454900Y-87851579D01*
X134454900Y-87764021D01*
X134437818Y-87678144D01*
X134404311Y-87597250D01*
X134355666Y-87524448D01*
X134293752Y-87462534D01*
X134220950Y-87413889D01*
X134140056Y-87380382D01*
X134054179Y-87363300D01*
X133966621Y-87363300D01*
X133880744Y-87380382D01*
X133799850Y-87413889D01*
X133727048Y-87462534D01*
X133665134Y-87524448D01*
X133616489Y-87597250D01*
X133582982Y-87678144D01*
X133565900Y-87764021D01*
X132422900Y-87764021D01*
X132422900Y-86824221D01*
X133718300Y-86824221D01*
X133718300Y-86911779D01*
X133735382Y-86997656D01*
X133768889Y-87078550D01*
X133817534Y-87151352D01*
X133879448Y-87213266D01*
X133952250Y-87261911D01*
X134033144Y-87295418D01*
X134119021Y-87312500D01*
X134206579Y-87312500D01*
X134292456Y-87295418D01*
X134373350Y-87261911D01*
X134446152Y-87213266D01*
X134508066Y-87151352D01*
X134556711Y-87078550D01*
X134590218Y-86997656D01*
X134607300Y-86911779D01*
X134607300Y-86824221D01*
X134590218Y-86738344D01*
X134572312Y-86695113D01*
X136313100Y-86695113D01*
X136313100Y-86786887D01*
X136331005Y-86876898D01*
X136366125Y-86961686D01*
X136417112Y-87037994D01*
X136482006Y-87102888D01*
X136558314Y-87153875D01*
X136643102Y-87188995D01*
X136733113Y-87206900D01*
X136824887Y-87206900D01*
X136914898Y-87188995D01*
X136999686Y-87153875D01*
X137075994Y-87102888D01*
X137140888Y-87037994D01*
X137160000Y-87009391D01*
X137179112Y-87037994D01*
X137244006Y-87102888D01*
X137320314Y-87153875D01*
X137405102Y-87188995D01*
X137495113Y-87206900D01*
X137586887Y-87206900D01*
X137676898Y-87188995D01*
X137761686Y-87153875D01*
X137837994Y-87102888D01*
X137902888Y-87037994D01*
X137953875Y-86961686D01*
X137958209Y-86951221D01*
X138747500Y-86951221D01*
X138747500Y-87038779D01*
X138764582Y-87124656D01*
X138798089Y-87205550D01*
X138846734Y-87278352D01*
X138908648Y-87340266D01*
X138981450Y-87388911D01*
X139062344Y-87422418D01*
X139148221Y-87439500D01*
X139218772Y-87439500D01*
X139205500Y-87506221D01*
X139205500Y-87593779D01*
X139222582Y-87679656D01*
X139256089Y-87760550D01*
X139304734Y-87833352D01*
X139366648Y-87895266D01*
X139439450Y-87943911D01*
X139520344Y-87977418D01*
X139606221Y-87994500D01*
X139693779Y-87994500D01*
X139779656Y-87977418D01*
X139860550Y-87943911D01*
X139933352Y-87895266D01*
X139995266Y-87833352D01*
X140043911Y-87760550D01*
X140077418Y-87679656D01*
X140094500Y-87593779D01*
X140094500Y-87506221D01*
X140091590Y-87491590D01*
X140106221Y-87494500D01*
X140193779Y-87494500D01*
X140279656Y-87477418D01*
X140360550Y-87443911D01*
X140433352Y-87395266D01*
X140495266Y-87333352D01*
X140528458Y-87283676D01*
X140585048Y-87340266D01*
X140657850Y-87388911D01*
X140738744Y-87422418D01*
X140822000Y-87438979D01*
X140796582Y-87500344D01*
X140779500Y-87586221D01*
X140779500Y-87673779D01*
X140796582Y-87759656D01*
X140830089Y-87840550D01*
X140878734Y-87913352D01*
X140940648Y-87975266D01*
X141013450Y-88023911D01*
X141094344Y-88057418D01*
X141180221Y-88074500D01*
X141267779Y-88074500D01*
X141353656Y-88057418D01*
X141434550Y-88023911D01*
X141507352Y-87975266D01*
X141569266Y-87913352D01*
X141617911Y-87840550D01*
X141651418Y-87759656D01*
X141668500Y-87673779D01*
X141668500Y-87586221D01*
X141651418Y-87500344D01*
X141617911Y-87419450D01*
X141569266Y-87346648D01*
X141507352Y-87284734D01*
X141434550Y-87236089D01*
X141353656Y-87202582D01*
X141270400Y-87186021D01*
X141295818Y-87124656D01*
X141305054Y-87078221D01*
X142176500Y-87078221D01*
X142176500Y-87165779D01*
X142193582Y-87251656D01*
X142227089Y-87332550D01*
X142275734Y-87405352D01*
X142337648Y-87467266D01*
X142410450Y-87515911D01*
X142491344Y-87549418D01*
X142577221Y-87566500D01*
X142664779Y-87566500D01*
X142750656Y-87549418D01*
X142831550Y-87515911D01*
X142904352Y-87467266D01*
X142966266Y-87405352D01*
X143014911Y-87332550D01*
X143048418Y-87251656D01*
X143065500Y-87165779D01*
X143065500Y-87078221D01*
X143048418Y-86992344D01*
X143014911Y-86911450D01*
X142966266Y-86838648D01*
X142904352Y-86776734D01*
X142831550Y-86728089D01*
X142757028Y-86697221D01*
X143192500Y-86697221D01*
X143192500Y-86784779D01*
X143209582Y-86870656D01*
X143243089Y-86951550D01*
X143291734Y-87024352D01*
X143353648Y-87086266D01*
X143426450Y-87134911D01*
X143507344Y-87168418D01*
X143593221Y-87185500D01*
X143680779Y-87185500D01*
X143766656Y-87168418D01*
X143847550Y-87134911D01*
X143848552Y-87134241D01*
X143878089Y-87205550D01*
X143926734Y-87278352D01*
X143988648Y-87340266D01*
X144061450Y-87388911D01*
X144142344Y-87422418D01*
X144228221Y-87439500D01*
X144250784Y-87439500D01*
X144225582Y-87500344D01*
X144208500Y-87586221D01*
X144208500Y-87673779D01*
X144225582Y-87759656D01*
X144259089Y-87840550D01*
X144307734Y-87913352D01*
X144369648Y-87975266D01*
X144442450Y-88023911D01*
X144523344Y-88057418D01*
X144609221Y-88074500D01*
X144696779Y-88074500D01*
X144782656Y-88057418D01*
X144863550Y-88023911D01*
X144936352Y-87975266D01*
X144998266Y-87913352D01*
X145046911Y-87840550D01*
X145080418Y-87759656D01*
X145097500Y-87673779D01*
X145097500Y-87586221D01*
X145080418Y-87500344D01*
X145046911Y-87419450D01*
X144998266Y-87346648D01*
X144936352Y-87284734D01*
X144863550Y-87236089D01*
X144782656Y-87202582D01*
X144696779Y-87185500D01*
X144674216Y-87185500D01*
X144699418Y-87124656D01*
X144716500Y-87038779D01*
X144716500Y-86951221D01*
X144711183Y-86924490D01*
X146604100Y-86924490D01*
X146604100Y-87065510D01*
X146631612Y-87203820D01*
X146685578Y-87334106D01*
X146763924Y-87451360D01*
X146863640Y-87551076D01*
X146980894Y-87629422D01*
X147111180Y-87683388D01*
X147249490Y-87710900D01*
X147390510Y-87710900D01*
X147528820Y-87683388D01*
X147659106Y-87629422D01*
X147776360Y-87551076D01*
X147876076Y-87451360D01*
X147954422Y-87334106D01*
X148008388Y-87203820D01*
X148035900Y-87065510D01*
X148035900Y-86924490D01*
X148008388Y-86786180D01*
X147954422Y-86655894D01*
X147876076Y-86538640D01*
X147776360Y-86438924D01*
X147659106Y-86360578D01*
X147528820Y-86306612D01*
X147390510Y-86279100D01*
X147249490Y-86279100D01*
X147111180Y-86306612D01*
X146980894Y-86360578D01*
X146863640Y-86438924D01*
X146763924Y-86538640D01*
X146685578Y-86655894D01*
X146631612Y-86786180D01*
X146604100Y-86924490D01*
X144711183Y-86924490D01*
X144699418Y-86865344D01*
X144665911Y-86784450D01*
X144617266Y-86711648D01*
X144555352Y-86649734D01*
X144482550Y-86601089D01*
X144401656Y-86567582D01*
X144315779Y-86550500D01*
X144228221Y-86550500D01*
X144142344Y-86567582D01*
X144061450Y-86601089D01*
X144060448Y-86601759D01*
X144030911Y-86530450D01*
X143982266Y-86457648D01*
X143920352Y-86395734D01*
X143847550Y-86347089D01*
X143766656Y-86313582D01*
X143680779Y-86296500D01*
X143593221Y-86296500D01*
X143507344Y-86313582D01*
X143426450Y-86347089D01*
X143353648Y-86395734D01*
X143291734Y-86457648D01*
X143243089Y-86530450D01*
X143209582Y-86611344D01*
X143192500Y-86697221D01*
X142757028Y-86697221D01*
X142750656Y-86694582D01*
X142664779Y-86677500D01*
X142577221Y-86677500D01*
X142491344Y-86694582D01*
X142410450Y-86728089D01*
X142337648Y-86776734D01*
X142275734Y-86838648D01*
X142227089Y-86911450D01*
X142193582Y-86992344D01*
X142176500Y-87078221D01*
X141305054Y-87078221D01*
X141312900Y-87038779D01*
X141312900Y-86951221D01*
X141295818Y-86865344D01*
X141262311Y-86784450D01*
X141213666Y-86711648D01*
X141151752Y-86649734D01*
X141078950Y-86601089D01*
X141063848Y-86594834D01*
X141077888Y-86580794D01*
X141128875Y-86504486D01*
X141163995Y-86419698D01*
X141181900Y-86329687D01*
X141181900Y-86237913D01*
X141163995Y-86147902D01*
X141128875Y-86063114D01*
X141077888Y-85986806D01*
X141012994Y-85921912D01*
X140936686Y-85870925D01*
X140851898Y-85835805D01*
X140761887Y-85817900D01*
X140670113Y-85817900D01*
X140580102Y-85835805D01*
X140495314Y-85870925D01*
X140419006Y-85921912D01*
X140354112Y-85986806D01*
X140303125Y-86063114D01*
X140268005Y-86147902D01*
X140250100Y-86237913D01*
X140250100Y-86329687D01*
X140268005Y-86419698D01*
X140303125Y-86504486D01*
X140354112Y-86580794D01*
X140419006Y-86645688D01*
X140495314Y-86696675D01*
X140525573Y-86709209D01*
X140523134Y-86711648D01*
X140489942Y-86761324D01*
X140433352Y-86704734D01*
X140360550Y-86656089D01*
X140279656Y-86622582D01*
X140193779Y-86605500D01*
X140106221Y-86605500D01*
X140020344Y-86622582D01*
X139939450Y-86656089D01*
X139866648Y-86704734D01*
X139804734Y-86766648D01*
X139756089Y-86839450D01*
X139722582Y-86920344D01*
X139705500Y-87006221D01*
X139705500Y-87093779D01*
X139708410Y-87108410D01*
X139693779Y-87105500D01*
X139623228Y-87105500D01*
X139636500Y-87038779D01*
X139636500Y-86951221D01*
X139619418Y-86865344D01*
X139585911Y-86784450D01*
X139537266Y-86711648D01*
X139475352Y-86649734D01*
X139402550Y-86601089D01*
X139321656Y-86567582D01*
X139235779Y-86550500D01*
X139148221Y-86550500D01*
X139062344Y-86567582D01*
X138981450Y-86601089D01*
X138908648Y-86649734D01*
X138846734Y-86711648D01*
X138798089Y-86784450D01*
X138764582Y-86865344D01*
X138747500Y-86951221D01*
X137958209Y-86951221D01*
X137988995Y-86876898D01*
X138006900Y-86786887D01*
X138006900Y-86695113D01*
X137988995Y-86605102D01*
X137953875Y-86520314D01*
X137902888Y-86444006D01*
X137837994Y-86379112D01*
X137761686Y-86328125D01*
X137676898Y-86293005D01*
X137586887Y-86275100D01*
X137495113Y-86275100D01*
X137405102Y-86293005D01*
X137320314Y-86328125D01*
X137244006Y-86379112D01*
X137179112Y-86444006D01*
X137160000Y-86472609D01*
X137140888Y-86444006D01*
X137075994Y-86379112D01*
X136999686Y-86328125D01*
X136914898Y-86293005D01*
X136824887Y-86275100D01*
X136733113Y-86275100D01*
X136643102Y-86293005D01*
X136558314Y-86328125D01*
X136482006Y-86379112D01*
X136417112Y-86444006D01*
X136366125Y-86520314D01*
X136331005Y-86605102D01*
X136313100Y-86695113D01*
X134572312Y-86695113D01*
X134556711Y-86657450D01*
X134508066Y-86584648D01*
X134446152Y-86522734D01*
X134373350Y-86474089D01*
X134292456Y-86440582D01*
X134206579Y-86423500D01*
X134119021Y-86423500D01*
X134033144Y-86440582D01*
X133952250Y-86474089D01*
X133879448Y-86522734D01*
X133817534Y-86584648D01*
X133768889Y-86657450D01*
X133735382Y-86738344D01*
X133718300Y-86824221D01*
X132422900Y-86824221D01*
X132422900Y-84162900D01*
X133730708Y-84162900D01*
X133687513Y-84191762D01*
X133687513Y-84191762D01*
G37*
X133687513Y-84191762D02*
X133594762Y-84284513D01*
X133521887Y-84393578D01*
X133471690Y-84514764D01*
X133446100Y-84643415D01*
X133446100Y-84774585D01*
X133471690Y-84903236D01*
X133521887Y-85024422D01*
X133594762Y-85133487D01*
X133687513Y-85226238D01*
X133796578Y-85299113D01*
X133890859Y-85338166D01*
X133828648Y-85379734D01*
X133766734Y-85441648D01*
X133718089Y-85514450D01*
X133684582Y-85595344D01*
X133667500Y-85681221D01*
X133667500Y-85768779D01*
X133684582Y-85854656D01*
X133718089Y-85935550D01*
X133766734Y-86008352D01*
X133828648Y-86070266D01*
X133901450Y-86118911D01*
X133982344Y-86152418D01*
X134068221Y-86169500D01*
X134155779Y-86169500D01*
X134241656Y-86152418D01*
X134322550Y-86118911D01*
X134395352Y-86070266D01*
X134457266Y-86008352D01*
X134505911Y-85935550D01*
X134539418Y-85854656D01*
X134556500Y-85768779D01*
X134556500Y-85681221D01*
X134539418Y-85595344D01*
X134505911Y-85514450D01*
X134457266Y-85441648D01*
X134395352Y-85379734D01*
X134333141Y-85338166D01*
X134427422Y-85299113D01*
X134536487Y-85226238D01*
X134629238Y-85133487D01*
X134702113Y-85024422D01*
X134752310Y-84903236D01*
X134777900Y-84774585D01*
X134777900Y-84643415D01*
X134752310Y-84514764D01*
X134702113Y-84393578D01*
X134629238Y-84284513D01*
X134536487Y-84191762D01*
X134493292Y-84162900D01*
X135635708Y-84162900D01*
X135592513Y-84191762D01*
X135499762Y-84284513D01*
X135426887Y-84393578D01*
X135376690Y-84514764D01*
X135351100Y-84643415D01*
X135351100Y-84774585D01*
X135376690Y-84903236D01*
X135426887Y-85024422D01*
X135499762Y-85133487D01*
X135592513Y-85226238D01*
X135701578Y-85299113D01*
X135822764Y-85349310D01*
X135951415Y-85374900D01*
X136082585Y-85374900D01*
X136211236Y-85349310D01*
X136332422Y-85299113D01*
X136441487Y-85226238D01*
X136534238Y-85133487D01*
X136607113Y-85024422D01*
X136657310Y-84903236D01*
X136682900Y-84774585D01*
X136682900Y-84643415D01*
X136657310Y-84514764D01*
X136607113Y-84393578D01*
X136534238Y-84284513D01*
X136441487Y-84191762D01*
X136398292Y-84162900D01*
X137540708Y-84162900D01*
X137497513Y-84191762D01*
X137404762Y-84284513D01*
X137331887Y-84393578D01*
X137281690Y-84514764D01*
X137256100Y-84643415D01*
X137256100Y-84774585D01*
X137281690Y-84903236D01*
X137331887Y-85024422D01*
X137404762Y-85133487D01*
X137497513Y-85226238D01*
X137606578Y-85299113D01*
X137727764Y-85349310D01*
X137856415Y-85374900D01*
X137987585Y-85374900D01*
X138116236Y-85349310D01*
X138237422Y-85299113D01*
X138346487Y-85226238D01*
X138439238Y-85133487D01*
X138512113Y-85024422D01*
X138562310Y-84903236D01*
X138587900Y-84774585D01*
X138587900Y-84643415D01*
X138562310Y-84514764D01*
X138512113Y-84393578D01*
X138439238Y-84284513D01*
X138346487Y-84191762D01*
X138303292Y-84162900D01*
X139445708Y-84162900D01*
X139402513Y-84191762D01*
X139309762Y-84284513D01*
X139236887Y-84393578D01*
X139186690Y-84514764D01*
X139161100Y-84643415D01*
X139161100Y-84774585D01*
X139186690Y-84903236D01*
X139236887Y-85024422D01*
X139309762Y-85133487D01*
X139402513Y-85226238D01*
X139511578Y-85299113D01*
X139632764Y-85349310D01*
X139761415Y-85374900D01*
X139892585Y-85374900D01*
X140021236Y-85349310D01*
X140142422Y-85299113D01*
X140251487Y-85226238D01*
X140344238Y-85133487D01*
X140417113Y-85024422D01*
X140467310Y-84903236D01*
X140492900Y-84774585D01*
X140492900Y-84643415D01*
X140467310Y-84514764D01*
X140417113Y-84393578D01*
X140344238Y-84284513D01*
X140251487Y-84191762D01*
X140208292Y-84162900D01*
X141350708Y-84162900D01*
X141307513Y-84191762D01*
X141214762Y-84284513D01*
X141141887Y-84393578D01*
X141091690Y-84514764D01*
X141066100Y-84643415D01*
X141066100Y-84774585D01*
X141091690Y-84903236D01*
X141141887Y-85024422D01*
X141214762Y-85133487D01*
X141307513Y-85226238D01*
X141416578Y-85299113D01*
X141537764Y-85349310D01*
X141666415Y-85374900D01*
X141797585Y-85374900D01*
X141926236Y-85349310D01*
X142047422Y-85299113D01*
X142156487Y-85226238D01*
X142249238Y-85133487D01*
X142322113Y-85024422D01*
X142372310Y-84903236D01*
X142397900Y-84774585D01*
X142397900Y-84643415D01*
X142372310Y-84514764D01*
X142322113Y-84393578D01*
X142249238Y-84284513D01*
X142156487Y-84191762D01*
X142113292Y-84162900D01*
X143255708Y-84162900D01*
X143212513Y-84191762D01*
X143119762Y-84284513D01*
X143046887Y-84393578D01*
X142996690Y-84514764D01*
X142971100Y-84643415D01*
X142971100Y-84774585D01*
X142996690Y-84903236D01*
X143046887Y-85024422D01*
X143119762Y-85133487D01*
X143212513Y-85226238D01*
X143321578Y-85299113D01*
X143442764Y-85349310D01*
X143571415Y-85374900D01*
X143702585Y-85374900D01*
X143831236Y-85349310D01*
X143952422Y-85299113D01*
X144061487Y-85226238D01*
X144154238Y-85133487D01*
X144227113Y-85024422D01*
X144277310Y-84903236D01*
X144302900Y-84774585D01*
X144302900Y-84643415D01*
X144277310Y-84514764D01*
X144227113Y-84393578D01*
X144154238Y-84284513D01*
X144061487Y-84191762D01*
X144018292Y-84162900D01*
X145160708Y-84162900D01*
X145117513Y-84191762D01*
X145024762Y-84284513D01*
X144951887Y-84393578D01*
X144901690Y-84514764D01*
X144876100Y-84643415D01*
X144876100Y-84774585D01*
X144901690Y-84903236D01*
X144951887Y-85024422D01*
X145024762Y-85133487D01*
X145117513Y-85226238D01*
X145226578Y-85299113D01*
X145347764Y-85349310D01*
X145476415Y-85374900D01*
X145537475Y-85374900D01*
X145529089Y-85387450D01*
X145495582Y-85468344D01*
X145478500Y-85554221D01*
X145478500Y-85641779D01*
X145495582Y-85727656D01*
X145529089Y-85808550D01*
X145577734Y-85881352D01*
X145639648Y-85943266D01*
X145712450Y-85991911D01*
X145793344Y-86025418D01*
X145879221Y-86042500D01*
X145966779Y-86042500D01*
X146052656Y-86025418D01*
X146133550Y-85991911D01*
X146206352Y-85943266D01*
X146268266Y-85881352D01*
X146316911Y-85808550D01*
X146350418Y-85727656D01*
X146367500Y-85641779D01*
X146367500Y-85589188D01*
X152114100Y-85589188D01*
X152114100Y-85690812D01*
X152133926Y-85790482D01*
X152172816Y-85884370D01*
X152229274Y-85968867D01*
X152301133Y-86040726D01*
X152385630Y-86097184D01*
X152479518Y-86136074D01*
X152579188Y-86155900D01*
X152680812Y-86155900D01*
X152780482Y-86136074D01*
X152874370Y-86097184D01*
X152958867Y-86040726D01*
X153030726Y-85968867D01*
X153087184Y-85884370D01*
X153126074Y-85790482D01*
X153145900Y-85690812D01*
X153145900Y-85589188D01*
X153126074Y-85489518D01*
X153087184Y-85395630D01*
X153030726Y-85311133D01*
X152958867Y-85239274D01*
X152874370Y-85182816D01*
X152780482Y-85143926D01*
X152680812Y-85124100D01*
X152579188Y-85124100D01*
X152479518Y-85143926D01*
X152385630Y-85182816D01*
X152301133Y-85239274D01*
X152229274Y-85311133D01*
X152172816Y-85395630D01*
X152133926Y-85489518D01*
X152114100Y-85589188D01*
X146367500Y-85589188D01*
X146367500Y-85554221D01*
X146350418Y-85468344D01*
X146316911Y-85387450D01*
X146268266Y-85314648D01*
X146206352Y-85252734D01*
X146133550Y-85204089D01*
X146052656Y-85170582D01*
X146027205Y-85165520D01*
X146059238Y-85133487D01*
X146132113Y-85024422D01*
X146182310Y-84903236D01*
X146207900Y-84774585D01*
X146207900Y-84643415D01*
X146182310Y-84514764D01*
X146132113Y-84393578D01*
X146059238Y-84284513D01*
X145966487Y-84191762D01*
X145923292Y-84162900D01*
X147065708Y-84162900D01*
X147022513Y-84191762D01*
X146929762Y-84284513D01*
X146856887Y-84393578D01*
X146806690Y-84514764D01*
X146781100Y-84643415D01*
X146781100Y-84774585D01*
X146806690Y-84903236D01*
X146856887Y-85024422D01*
X146929762Y-85133487D01*
X147022513Y-85226238D01*
X147131578Y-85299113D01*
X147252764Y-85349310D01*
X147381415Y-85374900D01*
X147512585Y-85374900D01*
X147641236Y-85349310D01*
X147762422Y-85299113D01*
X147871487Y-85226238D01*
X147964238Y-85133487D01*
X148037113Y-85024422D01*
X148087310Y-84903236D01*
X148112900Y-84774585D01*
X148112900Y-84643415D01*
X148087310Y-84514764D01*
X148037113Y-84393578D01*
X147964238Y-84284513D01*
X147871487Y-84191762D01*
X147828292Y-84162900D01*
X154431708Y-84162900D01*
X154388513Y-84191762D01*
X154295762Y-84284513D01*
X154222887Y-84393578D01*
X154172690Y-84514764D01*
X154147100Y-84643415D01*
X154147100Y-84774585D01*
X154172690Y-84903236D01*
X154222887Y-85024422D01*
X154295762Y-85133487D01*
X154388513Y-85226238D01*
X154497578Y-85299113D01*
X154618764Y-85349310D01*
X154747415Y-85374900D01*
X154878585Y-85374900D01*
X155007236Y-85349310D01*
X155128422Y-85299113D01*
X155237487Y-85226238D01*
X155330238Y-85133487D01*
X155403113Y-85024422D01*
X155453310Y-84903236D01*
X155478900Y-84774585D01*
X155478900Y-84643415D01*
X155453310Y-84514764D01*
X155403113Y-84393578D01*
X155330238Y-84284513D01*
X155237487Y-84191762D01*
X155194292Y-84162900D01*
X156336708Y-84162900D01*
X156293513Y-84191762D01*
X156200762Y-84284513D01*
X156127887Y-84393578D01*
X156077690Y-84514764D01*
X156052100Y-84643415D01*
X156052100Y-84774585D01*
X156077690Y-84903236D01*
X156127887Y-85024422D01*
X156200762Y-85133487D01*
X156293513Y-85226238D01*
X156402578Y-85299113D01*
X156523764Y-85349310D01*
X156652415Y-85374900D01*
X156783585Y-85374900D01*
X156912236Y-85349310D01*
X157033422Y-85299113D01*
X157137101Y-85229837D01*
X157137101Y-86093163D01*
X157033422Y-86023887D01*
X156912236Y-85973690D01*
X156783585Y-85948100D01*
X156652415Y-85948100D01*
X156523764Y-85973690D01*
X156402578Y-86023887D01*
X156293513Y-86096762D01*
X156200762Y-86189513D01*
X156127887Y-86298578D01*
X156077690Y-86419764D01*
X156052100Y-86548415D01*
X156052100Y-86679585D01*
X156077690Y-86808236D01*
X156127887Y-86929422D01*
X156200762Y-87038487D01*
X156293513Y-87131238D01*
X156402578Y-87204113D01*
X156523764Y-87254310D01*
X156652415Y-87279900D01*
X156783585Y-87279900D01*
X156912236Y-87254310D01*
X157033422Y-87204113D01*
X157137101Y-87134837D01*
X157137101Y-87998163D01*
X157033422Y-87928887D01*
X156912236Y-87878690D01*
X156783585Y-87853100D01*
X156652415Y-87853100D01*
X156523764Y-87878690D01*
X156402578Y-87928887D01*
X156293513Y-88001762D01*
X156200762Y-88094513D01*
X156127887Y-88203578D01*
X156077690Y-88324764D01*
X156052100Y-88453415D01*
X156052100Y-88584585D01*
X156077690Y-88713236D01*
X156127887Y-88834422D01*
X156200762Y-88943487D01*
X156293513Y-89036238D01*
X156402578Y-89109113D01*
X156523764Y-89159310D01*
X156652415Y-89184900D01*
X156783585Y-89184900D01*
X156912236Y-89159310D01*
X157033422Y-89109113D01*
X157137101Y-89039837D01*
X157137101Y-89903163D01*
X157033422Y-89833887D01*
X156912236Y-89783690D01*
X156783585Y-89758100D01*
X156652415Y-89758100D01*
X156523764Y-89783690D01*
X156402578Y-89833887D01*
X156293513Y-89906762D01*
X156200762Y-89999513D01*
X156127887Y-90108578D01*
X156077690Y-90229764D01*
X156052100Y-90358415D01*
X156052100Y-90489585D01*
X156077690Y-90618236D01*
X156127887Y-90739422D01*
X156200762Y-90848487D01*
X156293513Y-90941238D01*
X156402578Y-91014113D01*
X156523764Y-91064310D01*
X156652415Y-91089900D01*
X156783585Y-91089900D01*
X156912236Y-91064310D01*
X157033422Y-91014113D01*
X157137101Y-90944837D01*
X157137100Y-91808163D01*
X157033422Y-91738887D01*
X156912236Y-91688690D01*
X156783585Y-91663100D01*
X156652415Y-91663100D01*
X156523764Y-91688690D01*
X156402578Y-91738887D01*
X156293513Y-91811762D01*
X156200762Y-91904513D01*
X156127887Y-92013578D01*
X156077690Y-92134764D01*
X156052100Y-92263415D01*
X156052100Y-92394585D01*
X156077690Y-92523236D01*
X156127887Y-92644422D01*
X156200762Y-92753487D01*
X156293513Y-92846238D01*
X156359996Y-92890661D01*
X156328102Y-92897005D01*
X156243314Y-92932125D01*
X156167006Y-92983112D01*
X156102112Y-93048006D01*
X156051125Y-93124314D01*
X156016005Y-93209102D01*
X155998100Y-93299113D01*
X155998100Y-93390887D01*
X156016005Y-93480898D01*
X156051125Y-93565686D01*
X156102112Y-93641994D01*
X156167006Y-93706888D01*
X156243314Y-93757875D01*
X156249739Y-93760536D01*
X156200762Y-93809513D01*
X156127887Y-93918578D01*
X156077690Y-94039764D01*
X156052100Y-94168415D01*
X156052100Y-94299585D01*
X156077690Y-94428236D01*
X156127887Y-94549422D01*
X156200762Y-94658487D01*
X156293513Y-94751238D01*
X156402578Y-94824113D01*
X156523764Y-94874310D01*
X156652415Y-94899900D01*
X156783585Y-94899900D01*
X156912236Y-94874310D01*
X157033422Y-94824113D01*
X157137100Y-94754837D01*
X157137100Y-95618163D01*
X157033422Y-95548887D01*
X156912236Y-95498690D01*
X156783585Y-95473100D01*
X156652415Y-95473100D01*
X156523764Y-95498690D01*
X156402578Y-95548887D01*
X156293513Y-95621762D01*
X156200762Y-95714513D01*
X156127887Y-95823578D01*
X156077690Y-95944764D01*
X156052100Y-96073415D01*
X156052100Y-96204585D01*
X156077690Y-96333236D01*
X156127887Y-96454422D01*
X156200762Y-96563487D01*
X156293513Y-96656238D01*
X156402578Y-96729113D01*
X156523764Y-96779310D01*
X156652415Y-96804900D01*
X156783585Y-96804900D01*
X156912236Y-96779310D01*
X157033422Y-96729113D01*
X157137100Y-96659837D01*
X157137100Y-97523163D01*
X157033422Y-97453887D01*
X156912236Y-97403690D01*
X156783585Y-97378100D01*
X156652415Y-97378100D01*
X156523764Y-97403690D01*
X156402578Y-97453887D01*
X156293513Y-97526762D01*
X156200762Y-97619513D01*
X156127887Y-97728578D01*
X156077690Y-97849764D01*
X156052100Y-97978415D01*
X156052100Y-98109585D01*
X156077690Y-98238236D01*
X156127887Y-98359422D01*
X156200762Y-98468487D01*
X156293513Y-98561238D01*
X156402578Y-98634113D01*
X156523764Y-98684310D01*
X156652415Y-98709900D01*
X156783585Y-98709900D01*
X156912236Y-98684310D01*
X157033422Y-98634113D01*
X157137100Y-98564837D01*
X157137100Y-98717100D01*
X155194292Y-98717100D01*
X155237487Y-98688238D01*
X155330238Y-98595487D01*
X155403113Y-98486422D01*
X155453310Y-98365236D01*
X155478900Y-98236585D01*
X155478900Y-98105415D01*
X155453310Y-97976764D01*
X155403113Y-97855578D01*
X155330238Y-97746513D01*
X155237487Y-97653762D01*
X155128422Y-97580887D01*
X155007236Y-97530690D01*
X154878585Y-97505100D01*
X154747415Y-97505100D01*
X154618764Y-97530690D01*
X154497578Y-97580887D01*
X154388513Y-97653762D01*
X154295762Y-97746513D01*
X154222887Y-97855578D01*
X154172690Y-97976764D01*
X154147100Y-98105415D01*
X154147100Y-98236585D01*
X154172690Y-98365236D01*
X154222887Y-98486422D01*
X154295762Y-98595487D01*
X154388513Y-98688238D01*
X154431708Y-98717100D01*
X147828292Y-98717100D01*
X147871487Y-98688238D01*
X147964238Y-98595487D01*
X148037113Y-98486422D01*
X148087310Y-98365236D01*
X148112900Y-98236585D01*
X148112900Y-98105415D01*
X148087310Y-97976764D01*
X148037113Y-97855578D01*
X147964238Y-97746513D01*
X147871487Y-97653762D01*
X147762422Y-97580887D01*
X147641236Y-97530690D01*
X147512585Y-97505100D01*
X147381415Y-97505100D01*
X147252764Y-97530690D01*
X147131578Y-97580887D01*
X147022513Y-97653762D01*
X146929762Y-97746513D01*
X146856887Y-97855578D01*
X146806690Y-97976764D01*
X146781100Y-98105415D01*
X146781100Y-98236585D01*
X146806690Y-98365236D01*
X146856887Y-98486422D01*
X146929762Y-98595487D01*
X147022513Y-98688238D01*
X147065708Y-98717100D01*
X145923292Y-98717100D01*
X145966487Y-98688238D01*
X146059238Y-98595487D01*
X146132113Y-98486422D01*
X146182310Y-98365236D01*
X146207900Y-98236585D01*
X146207900Y-98105415D01*
X146182310Y-97976764D01*
X146132113Y-97855578D01*
X146059238Y-97746513D01*
X145966487Y-97653762D01*
X145857422Y-97580887D01*
X145736236Y-97530690D01*
X145607585Y-97505100D01*
X145476415Y-97505100D01*
X145347764Y-97530690D01*
X145226578Y-97580887D01*
X145117513Y-97653762D01*
X145024762Y-97746513D01*
X144951887Y-97855578D01*
X144901690Y-97976764D01*
X144876100Y-98105415D01*
X144876100Y-98236585D01*
X144901690Y-98365236D01*
X144951887Y-98486422D01*
X145024762Y-98595487D01*
X145117513Y-98688238D01*
X145160708Y-98717100D01*
X144018292Y-98717100D01*
X144061487Y-98688238D01*
X144154238Y-98595487D01*
X144227113Y-98486422D01*
X144277310Y-98365236D01*
X144302900Y-98236585D01*
X144302900Y-98105415D01*
X144277310Y-97976764D01*
X144227113Y-97855578D01*
X144154238Y-97746513D01*
X144061487Y-97653762D01*
X143952422Y-97580887D01*
X143831236Y-97530690D01*
X143702585Y-97505100D01*
X143571415Y-97505100D01*
X143442764Y-97530690D01*
X143321578Y-97580887D01*
X143212513Y-97653762D01*
X143119762Y-97746513D01*
X143046887Y-97855578D01*
X142996690Y-97976764D01*
X142971100Y-98105415D01*
X142971100Y-98236585D01*
X142996690Y-98365236D01*
X143046887Y-98486422D01*
X143119762Y-98595487D01*
X143212513Y-98688238D01*
X143255708Y-98717100D01*
X142113292Y-98717100D01*
X142156487Y-98688238D01*
X142249238Y-98595487D01*
X142322113Y-98486422D01*
X142372310Y-98365236D01*
X142397900Y-98236585D01*
X142397900Y-98105415D01*
X142372310Y-97976764D01*
X142322113Y-97855578D01*
X142249238Y-97746513D01*
X142156487Y-97653762D01*
X142047422Y-97580887D01*
X141926236Y-97530690D01*
X141797585Y-97505100D01*
X141666415Y-97505100D01*
X141537764Y-97530690D01*
X141416578Y-97580887D01*
X141307513Y-97653762D01*
X141214762Y-97746513D01*
X141141887Y-97855578D01*
X141091690Y-97976764D01*
X141066100Y-98105415D01*
X141066100Y-98236585D01*
X141091690Y-98365236D01*
X141141887Y-98486422D01*
X141214762Y-98595487D01*
X141307513Y-98688238D01*
X141350708Y-98717100D01*
X140208292Y-98717100D01*
X140251487Y-98688238D01*
X140344238Y-98595487D01*
X140417113Y-98486422D01*
X140467310Y-98365236D01*
X140492900Y-98236585D01*
X140492900Y-98105415D01*
X140467310Y-97976764D01*
X140417113Y-97855578D01*
X140344238Y-97746513D01*
X140251487Y-97653762D01*
X140142422Y-97580887D01*
X140021236Y-97530690D01*
X139892585Y-97505100D01*
X139761415Y-97505100D01*
X139632764Y-97530690D01*
X139511578Y-97580887D01*
X139402513Y-97653762D01*
X139309762Y-97746513D01*
X139236887Y-97855578D01*
X139186690Y-97976764D01*
X139161100Y-98105415D01*
X139161100Y-98236585D01*
X139186690Y-98365236D01*
X139236887Y-98486422D01*
X139309762Y-98595487D01*
X139402513Y-98688238D01*
X139445708Y-98717100D01*
X138303292Y-98717100D01*
X138346487Y-98688238D01*
X138439238Y-98595487D01*
X138512113Y-98486422D01*
X138562310Y-98365236D01*
X138587900Y-98236585D01*
X138587900Y-98105415D01*
X138562310Y-97976764D01*
X138512113Y-97855578D01*
X138439238Y-97746513D01*
X138346487Y-97653762D01*
X138237422Y-97580887D01*
X138116236Y-97530690D01*
X137987585Y-97505100D01*
X137856415Y-97505100D01*
X137727764Y-97530690D01*
X137606578Y-97580887D01*
X137497513Y-97653762D01*
X137404762Y-97746513D01*
X137331887Y-97855578D01*
X137281690Y-97976764D01*
X137256100Y-98105415D01*
X137256100Y-98236585D01*
X137281690Y-98365236D01*
X137331887Y-98486422D01*
X137404762Y-98595487D01*
X137497513Y-98688238D01*
X137540708Y-98717100D01*
X136398292Y-98717100D01*
X136441487Y-98688238D01*
X136534238Y-98595487D01*
X136607113Y-98486422D01*
X136657310Y-98365236D01*
X136682900Y-98236585D01*
X136682900Y-98105415D01*
X136657310Y-97976764D01*
X136607113Y-97855578D01*
X136534238Y-97746513D01*
X136441487Y-97653762D01*
X136332422Y-97580887D01*
X136211236Y-97530690D01*
X136082585Y-97505100D01*
X135951415Y-97505100D01*
X135822764Y-97530690D01*
X135701578Y-97580887D01*
X135592513Y-97653762D01*
X135499762Y-97746513D01*
X135426887Y-97855578D01*
X135376690Y-97976764D01*
X135351100Y-98105415D01*
X135351100Y-98236585D01*
X135376690Y-98365236D01*
X135426887Y-98486422D01*
X135499762Y-98595487D01*
X135592513Y-98688238D01*
X135635708Y-98717100D01*
X134493292Y-98717100D01*
X134536487Y-98688238D01*
X134629238Y-98595487D01*
X134702113Y-98486422D01*
X134752310Y-98365236D01*
X134777900Y-98236585D01*
X134777900Y-98105415D01*
X134752310Y-97976764D01*
X134702113Y-97855578D01*
X134629238Y-97746513D01*
X134536487Y-97653762D01*
X134427422Y-97580887D01*
X134306236Y-97530690D01*
X134177585Y-97505100D01*
X134046415Y-97505100D01*
X133917764Y-97530690D01*
X133796578Y-97580887D01*
X133687513Y-97653762D01*
X133594762Y-97746513D01*
X133521887Y-97855578D01*
X133471690Y-97976764D01*
X133446100Y-98105415D01*
X133446100Y-98236585D01*
X133471690Y-98365236D01*
X133521887Y-98486422D01*
X133594762Y-98595487D01*
X133687513Y-98688238D01*
X133730708Y-98717100D01*
X132422900Y-98717100D01*
X132422900Y-97552074D01*
X132467921Y-97597095D01*
X132547034Y-97517982D01*
X132562375Y-97589465D01*
X132754054Y-97650684D01*
X132953993Y-97673332D01*
X133154509Y-97656539D01*
X133347897Y-97600950D01*
X133375625Y-97589465D01*
X133414081Y-97410279D01*
X133192990Y-97189188D01*
X152114100Y-97189188D01*
X152114100Y-97290812D01*
X152133926Y-97390482D01*
X152172816Y-97484370D01*
X152229274Y-97568867D01*
X152301133Y-97640726D01*
X152385630Y-97697184D01*
X152479518Y-97736074D01*
X152579188Y-97755900D01*
X152680812Y-97755900D01*
X152780482Y-97736074D01*
X152874370Y-97697184D01*
X152958867Y-97640726D01*
X153030726Y-97568867D01*
X153087184Y-97484370D01*
X153126074Y-97390482D01*
X153145900Y-97290812D01*
X153145900Y-97189188D01*
X153126074Y-97089518D01*
X153087184Y-96995630D01*
X153030726Y-96911133D01*
X152958867Y-96839274D01*
X152874370Y-96782816D01*
X152780482Y-96743926D01*
X152680812Y-96724100D01*
X152579188Y-96724100D01*
X152479518Y-96743926D01*
X152385630Y-96782816D01*
X152301133Y-96839274D01*
X152229274Y-96911133D01*
X152172816Y-96995630D01*
X152133926Y-97089518D01*
X152114100Y-97189188D01*
X133192990Y-97189188D01*
X132969000Y-96965198D01*
X132889451Y-97044748D01*
X132571253Y-96726550D01*
X132650802Y-96647000D01*
X133287198Y-96647000D01*
X133732279Y-97092081D01*
X133911465Y-97053625D01*
X133972684Y-96861946D01*
X133995332Y-96662007D01*
X133979597Y-96474113D01*
X137456100Y-96474113D01*
X137456100Y-96565887D01*
X137474005Y-96655898D01*
X137509125Y-96740686D01*
X137560112Y-96816994D01*
X137625006Y-96881888D01*
X137701314Y-96932875D01*
X137786102Y-96967995D01*
X137876113Y-96985900D01*
X137967887Y-96985900D01*
X138057898Y-96967995D01*
X138142686Y-96932875D01*
X138218994Y-96881888D01*
X138283888Y-96816994D01*
X138334875Y-96740686D01*
X138369995Y-96655898D01*
X138380473Y-96603221D01*
X143700500Y-96603221D01*
X143700500Y-96690779D01*
X143717582Y-96776656D01*
X143751089Y-96857550D01*
X143799734Y-96930352D01*
X143861648Y-96992266D01*
X143934450Y-97040911D01*
X144015344Y-97074418D01*
X144101221Y-97091500D01*
X144188779Y-97091500D01*
X144274656Y-97074418D01*
X144355550Y-97040911D01*
X144428352Y-96992266D01*
X144490266Y-96930352D01*
X144538911Y-96857550D01*
X144572418Y-96776656D01*
X144589500Y-96690779D01*
X144589500Y-96603221D01*
X144572418Y-96517344D01*
X144538911Y-96436450D01*
X144490266Y-96363648D01*
X144428352Y-96301734D01*
X144355550Y-96253089D01*
X144274656Y-96219582D01*
X144188779Y-96202500D01*
X144101221Y-96202500D01*
X144015344Y-96219582D01*
X143934450Y-96253089D01*
X143861648Y-96301734D01*
X143799734Y-96363648D01*
X143751089Y-96436450D01*
X143717582Y-96517344D01*
X143700500Y-96603221D01*
X138380473Y-96603221D01*
X138387900Y-96565887D01*
X138387900Y-96474113D01*
X138369995Y-96384102D01*
X138334875Y-96299314D01*
X138283888Y-96223006D01*
X138218994Y-96158112D01*
X138142686Y-96107125D01*
X138057898Y-96072005D01*
X137967887Y-96054100D01*
X137876113Y-96054100D01*
X137786102Y-96072005D01*
X137701314Y-96107125D01*
X137625006Y-96158112D01*
X137560112Y-96223006D01*
X137509125Y-96299314D01*
X137474005Y-96384102D01*
X137456100Y-96474113D01*
X133979597Y-96474113D01*
X133978539Y-96461491D01*
X133922950Y-96268103D01*
X133911465Y-96240375D01*
X133732279Y-96201919D01*
X133287198Y-96647000D01*
X132650802Y-96647000D01*
X132571253Y-96567451D01*
X132889451Y-96249253D01*
X132969000Y-96328802D01*
X133414081Y-95883721D01*
X133375625Y-95704535D01*
X133183946Y-95643316D01*
X132984007Y-95620668D01*
X132783491Y-95637461D01*
X132590103Y-95693050D01*
X132562375Y-95704535D01*
X132547034Y-95776018D01*
X132467921Y-95696905D01*
X132422900Y-95741926D01*
X132422900Y-95079221D01*
X139763500Y-95079221D01*
X139763500Y-95166779D01*
X139780582Y-95252656D01*
X139814089Y-95333550D01*
X139862734Y-95406352D01*
X139924648Y-95468266D01*
X139997450Y-95516911D01*
X140078344Y-95550418D01*
X140164221Y-95567500D01*
X140251779Y-95567500D01*
X140337656Y-95550418D01*
X140418550Y-95516911D01*
X140491352Y-95468266D01*
X140553266Y-95406352D01*
X140601911Y-95333550D01*
X140635418Y-95252656D01*
X140652500Y-95166779D01*
X140652500Y-95079221D01*
X140855700Y-95079221D01*
X140855700Y-95166779D01*
X140872782Y-95252656D01*
X140906289Y-95333550D01*
X140954934Y-95406352D01*
X141016848Y-95468266D01*
X141089650Y-95516911D01*
X141170544Y-95550418D01*
X141256421Y-95567500D01*
X141343979Y-95567500D01*
X141429856Y-95550418D01*
X141510750Y-95516911D01*
X141583552Y-95468266D01*
X141645466Y-95406352D01*
X141694111Y-95333550D01*
X141727618Y-95252656D01*
X141737273Y-95204113D01*
X142155100Y-95204113D01*
X142155100Y-95295887D01*
X142173005Y-95385898D01*
X142208125Y-95470686D01*
X142259112Y-95546994D01*
X142324006Y-95611888D01*
X142400314Y-95662875D01*
X142485102Y-95697995D01*
X142575113Y-95715900D01*
X142666887Y-95715900D01*
X142756898Y-95697995D01*
X142841686Y-95662875D01*
X142917994Y-95611888D01*
X142982888Y-95546994D01*
X143033875Y-95470686D01*
X143068995Y-95385898D01*
X143086900Y-95295887D01*
X143086900Y-95204113D01*
X143068995Y-95114102D01*
X143033875Y-95029314D01*
X142982888Y-94953006D01*
X142917994Y-94888112D01*
X142841686Y-94837125D01*
X142756898Y-94802005D01*
X142666887Y-94784100D01*
X142575113Y-94784100D01*
X142485102Y-94802005D01*
X142400314Y-94837125D01*
X142324006Y-94888112D01*
X142259112Y-94953006D01*
X142208125Y-95029314D01*
X142173005Y-95114102D01*
X142155100Y-95204113D01*
X141737273Y-95204113D01*
X141744700Y-95166779D01*
X141744700Y-95079221D01*
X141727618Y-94993344D01*
X141694111Y-94912450D01*
X141645466Y-94839648D01*
X141583552Y-94777734D01*
X141510750Y-94729089D01*
X141429856Y-94695582D01*
X141343979Y-94678500D01*
X141256421Y-94678500D01*
X141170544Y-94695582D01*
X141089650Y-94729089D01*
X141016848Y-94777734D01*
X140954934Y-94839648D01*
X140906289Y-94912450D01*
X140872782Y-94993344D01*
X140855700Y-95079221D01*
X140652500Y-95079221D01*
X140635418Y-94993344D01*
X140601911Y-94912450D01*
X140553266Y-94839648D01*
X140491352Y-94777734D01*
X140418550Y-94729089D01*
X140337656Y-94695582D01*
X140251779Y-94678500D01*
X140164221Y-94678500D01*
X140078344Y-94695582D01*
X139997450Y-94729089D01*
X139924648Y-94777734D01*
X139862734Y-94839648D01*
X139814089Y-94912450D01*
X139780582Y-94993344D01*
X139763500Y-95079221D01*
X132422900Y-95079221D01*
X132422900Y-92918113D01*
X133773100Y-92918113D01*
X133773100Y-93009887D01*
X133791005Y-93099898D01*
X133826125Y-93184686D01*
X133877112Y-93260994D01*
X133942006Y-93325888D01*
X134018314Y-93376875D01*
X134103102Y-93411995D01*
X134193113Y-93429900D01*
X134284887Y-93429900D01*
X134374898Y-93411995D01*
X134459686Y-93376875D01*
X134535994Y-93325888D01*
X134600888Y-93260994D01*
X134651875Y-93184686D01*
X134686995Y-93099898D01*
X134704900Y-93009887D01*
X134704900Y-92918113D01*
X136059100Y-92918113D01*
X136059100Y-93009887D01*
X136077005Y-93099898D01*
X136112125Y-93184686D01*
X136163112Y-93260994D01*
X136228006Y-93325888D01*
X136304314Y-93376875D01*
X136389102Y-93411995D01*
X136479113Y-93429900D01*
X136570887Y-93429900D01*
X136660898Y-93411995D01*
X136745686Y-93376875D01*
X136821994Y-93325888D01*
X136886888Y-93260994D01*
X136937875Y-93184686D01*
X136972995Y-93099898D01*
X136990900Y-93009887D01*
X136990900Y-92918113D01*
X137202100Y-92918113D01*
X137202100Y-93009887D01*
X137220005Y-93099898D01*
X137255125Y-93184686D01*
X137306112Y-93260994D01*
X137371006Y-93325888D01*
X137447314Y-93376875D01*
X137532102Y-93411995D01*
X137622113Y-93429900D01*
X137713887Y-93429900D01*
X137803898Y-93411995D01*
X137888686Y-93376875D01*
X137964994Y-93325888D01*
X138029888Y-93260994D01*
X138080875Y-93184686D01*
X138115995Y-93099898D01*
X138133900Y-93009887D01*
X138133900Y-92918113D01*
X138115995Y-92828102D01*
X138080875Y-92743314D01*
X138029888Y-92667006D01*
X137964994Y-92602112D01*
X137888686Y-92551125D01*
X137803898Y-92516005D01*
X137713887Y-92498100D01*
X137622113Y-92498100D01*
X137532102Y-92516005D01*
X137447314Y-92551125D01*
X137371006Y-92602112D01*
X137306112Y-92667006D01*
X137255125Y-92743314D01*
X137220005Y-92828102D01*
X137202100Y-92918113D01*
X136990900Y-92918113D01*
X136972995Y-92828102D01*
X136937875Y-92743314D01*
X136886888Y-92667006D01*
X136821994Y-92602112D01*
X136745686Y-92551125D01*
X136660898Y-92516005D01*
X136570887Y-92498100D01*
X136479113Y-92498100D01*
X136389102Y-92516005D01*
X136304314Y-92551125D01*
X136228006Y-92602112D01*
X136163112Y-92667006D01*
X136112125Y-92743314D01*
X136077005Y-92828102D01*
X136059100Y-92918113D01*
X134704900Y-92918113D01*
X134686995Y-92828102D01*
X134651875Y-92743314D01*
X134600888Y-92667006D01*
X134535994Y-92602112D01*
X134459686Y-92551125D01*
X134374898Y-92516005D01*
X134284887Y-92498100D01*
X134193113Y-92498100D01*
X134103102Y-92516005D01*
X134018314Y-92551125D01*
X133942006Y-92602112D01*
X133877112Y-92667006D01*
X133826125Y-92743314D01*
X133791005Y-92828102D01*
X133773100Y-92918113D01*
X132422900Y-92918113D01*
X132422900Y-92183621D01*
X140220700Y-92183621D01*
X140220700Y-92271179D01*
X140237782Y-92357056D01*
X140271289Y-92437950D01*
X140319934Y-92510752D01*
X140379482Y-92570300D01*
X140319934Y-92629848D01*
X140271289Y-92702650D01*
X140237782Y-92783544D01*
X140220700Y-92869421D01*
X140220700Y-92956979D01*
X140237782Y-93042856D01*
X140271289Y-93123750D01*
X140319934Y-93196552D01*
X140381848Y-93258466D01*
X140454650Y-93307111D01*
X140535544Y-93340618D01*
X140621421Y-93357700D01*
X140708979Y-93357700D01*
X140794856Y-93340618D01*
X140875750Y-93307111D01*
X140876752Y-93306441D01*
X140906289Y-93377750D01*
X140954934Y-93450552D01*
X141016848Y-93512466D01*
X141089650Y-93561111D01*
X141170544Y-93594618D01*
X141256421Y-93611700D01*
X141343979Y-93611700D01*
X141429856Y-93594618D01*
X141510750Y-93561111D01*
X141583552Y-93512466D01*
X141645466Y-93450552D01*
X141664286Y-93422386D01*
X141666134Y-93425152D01*
X141728048Y-93487066D01*
X141800850Y-93535711D01*
X141881744Y-93569218D01*
X141967621Y-93586300D01*
X142055179Y-93586300D01*
X142141056Y-93569218D01*
X142221950Y-93535711D01*
X142294752Y-93487066D01*
X142356666Y-93425152D01*
X142405311Y-93352350D01*
X142438818Y-93271456D01*
X142455900Y-93185579D01*
X142455900Y-93098021D01*
X142438818Y-93012144D01*
X142405311Y-92931250D01*
X142356666Y-92858448D01*
X142294752Y-92796534D01*
X142221950Y-92747889D01*
X142141056Y-92714382D01*
X142055179Y-92697300D01*
X141967621Y-92697300D01*
X141881744Y-92714382D01*
X141800850Y-92747889D01*
X141728048Y-92796534D01*
X141666134Y-92858448D01*
X141647314Y-92886614D01*
X141645466Y-92883848D01*
X141583552Y-92821934D01*
X141510750Y-92773289D01*
X141429856Y-92739782D01*
X141343979Y-92722700D01*
X141256421Y-92722700D01*
X141170544Y-92739782D01*
X141089650Y-92773289D01*
X141088648Y-92773959D01*
X141059111Y-92702650D01*
X141010466Y-92629848D01*
X140950918Y-92570300D01*
X141010466Y-92510752D01*
X141059111Y-92437950D01*
X141092618Y-92357056D01*
X141109700Y-92271179D01*
X141109700Y-92183621D01*
X141104229Y-92156113D01*
X143679100Y-92156113D01*
X143679100Y-92247887D01*
X143697005Y-92337898D01*
X143732125Y-92422686D01*
X143783112Y-92498994D01*
X143848006Y-92563888D01*
X143924314Y-92614875D01*
X144000664Y-92646500D01*
X143924314Y-92678125D01*
X143848006Y-92729112D01*
X143783112Y-92794006D01*
X143732125Y-92870314D01*
X143697005Y-92955102D01*
X143679100Y-93045113D01*
X143679100Y-93136887D01*
X143697005Y-93226898D01*
X143732125Y-93311686D01*
X143783112Y-93387994D01*
X143848006Y-93452888D01*
X143924314Y-93503875D01*
X144009102Y-93538995D01*
X144099113Y-93556900D01*
X144190887Y-93556900D01*
X144280898Y-93538995D01*
X144365686Y-93503875D01*
X144441994Y-93452888D01*
X144506888Y-93387994D01*
X144557875Y-93311686D01*
X144592995Y-93226898D01*
X144610900Y-93136887D01*
X144610900Y-93045113D01*
X144592995Y-92955102D01*
X144557875Y-92870314D01*
X144506888Y-92794006D01*
X144441994Y-92729112D01*
X144365686Y-92678125D01*
X144289336Y-92646500D01*
X144365686Y-92614875D01*
X144441994Y-92563888D01*
X144506888Y-92498994D01*
X144557875Y-92422686D01*
X144562209Y-92412221D01*
X145732500Y-92412221D01*
X145732500Y-92499779D01*
X145749582Y-92585656D01*
X145783089Y-92666550D01*
X145831734Y-92739352D01*
X145893648Y-92801266D01*
X145947127Y-92837000D01*
X145893648Y-92872734D01*
X145831734Y-92934648D01*
X145783089Y-93007450D01*
X145749582Y-93088344D01*
X145732500Y-93174221D01*
X145732500Y-93261779D01*
X145749582Y-93347656D01*
X145783089Y-93428550D01*
X145831734Y-93501352D01*
X145893648Y-93563266D01*
X145966450Y-93611911D01*
X146047344Y-93645418D01*
X146133221Y-93662500D01*
X146220779Y-93662500D01*
X146306656Y-93645418D01*
X146387550Y-93611911D01*
X146460352Y-93563266D01*
X146522266Y-93501352D01*
X146570911Y-93428550D01*
X146604418Y-93347656D01*
X146619287Y-93272905D01*
X146655648Y-93309266D01*
X146728450Y-93357911D01*
X146809344Y-93391418D01*
X146895221Y-93408500D01*
X146982779Y-93408500D01*
X147068656Y-93391418D01*
X147149550Y-93357911D01*
X147222352Y-93309266D01*
X147284266Y-93247352D01*
X147332911Y-93174550D01*
X147366418Y-93093656D01*
X147383500Y-93007779D01*
X147383500Y-92920221D01*
X147378603Y-92895603D01*
X147403221Y-92900500D01*
X147490779Y-92900500D01*
X147576656Y-92883418D01*
X147657550Y-92849911D01*
X147730352Y-92801266D01*
X147792266Y-92739352D01*
X147840911Y-92666550D01*
X147874418Y-92585656D01*
X147891500Y-92499779D01*
X147891500Y-92412221D01*
X147874418Y-92326344D01*
X147840911Y-92245450D01*
X147792266Y-92172648D01*
X147730352Y-92110734D01*
X147657550Y-92062089D01*
X147576656Y-92028582D01*
X147490779Y-92011500D01*
X147403221Y-92011500D01*
X147317344Y-92028582D01*
X147236450Y-92062089D01*
X147163648Y-92110734D01*
X147101734Y-92172648D01*
X147053089Y-92245450D01*
X147019582Y-92326344D01*
X147002500Y-92412221D01*
X147002500Y-92499779D01*
X147007397Y-92524397D01*
X146982779Y-92519500D01*
X146895221Y-92519500D01*
X146809344Y-92536582D01*
X146728450Y-92570089D01*
X146655648Y-92618734D01*
X146593734Y-92680648D01*
X146545089Y-92753450D01*
X146511582Y-92834344D01*
X146496713Y-92909095D01*
X146460352Y-92872734D01*
X146406873Y-92837000D01*
X146460352Y-92801266D01*
X146522266Y-92739352D01*
X146570911Y-92666550D01*
X146604418Y-92585656D01*
X146621500Y-92499779D01*
X146621500Y-92412221D01*
X146604418Y-92326344D01*
X146570911Y-92245450D01*
X146522266Y-92172648D01*
X146460352Y-92110734D01*
X146460007Y-92110503D01*
X146514550Y-92087911D01*
X146587352Y-92039266D01*
X146649266Y-91977352D01*
X146697911Y-91904550D01*
X146731418Y-91823656D01*
X146748500Y-91737779D01*
X146748500Y-91650221D01*
X146731418Y-91564344D01*
X146697911Y-91483450D01*
X146649266Y-91410648D01*
X146587352Y-91348734D01*
X146514550Y-91300089D01*
X146433656Y-91266582D01*
X146347779Y-91249500D01*
X146260221Y-91249500D01*
X146174344Y-91266582D01*
X146093450Y-91300089D01*
X146020648Y-91348734D01*
X145958734Y-91410648D01*
X145910089Y-91483450D01*
X145876582Y-91564344D01*
X145859500Y-91650221D01*
X145859500Y-91737779D01*
X145876582Y-91823656D01*
X145910089Y-91904550D01*
X145958734Y-91977352D01*
X146020648Y-92039266D01*
X146020993Y-92039497D01*
X145966450Y-92062089D01*
X145893648Y-92110734D01*
X145831734Y-92172648D01*
X145783089Y-92245450D01*
X145749582Y-92326344D01*
X145732500Y-92412221D01*
X144562209Y-92412221D01*
X144592995Y-92337898D01*
X144610900Y-92247887D01*
X144610900Y-92156113D01*
X144592995Y-92066102D01*
X144557875Y-91981314D01*
X144506888Y-91905006D01*
X144441994Y-91840112D01*
X144365686Y-91789125D01*
X144280898Y-91754005D01*
X144190887Y-91736100D01*
X144099113Y-91736100D01*
X144009102Y-91754005D01*
X143924314Y-91789125D01*
X143848006Y-91840112D01*
X143783112Y-91905006D01*
X143732125Y-91981314D01*
X143697005Y-92066102D01*
X143679100Y-92156113D01*
X141104229Y-92156113D01*
X141092618Y-92097744D01*
X141059111Y-92016850D01*
X141010466Y-91944048D01*
X140948552Y-91882134D01*
X140875750Y-91833489D01*
X140794856Y-91799982D01*
X140708979Y-91782900D01*
X140621421Y-91782900D01*
X140535544Y-91799982D01*
X140454650Y-91833489D01*
X140381848Y-91882134D01*
X140319934Y-91944048D01*
X140271289Y-92016850D01*
X140237782Y-92097744D01*
X140220700Y-92183621D01*
X132422900Y-92183621D01*
X132422900Y-91003264D01*
X133673100Y-91003264D01*
X133673100Y-91114736D01*
X133694847Y-91224067D01*
X133737506Y-91327054D01*
X133799437Y-91419740D01*
X133878260Y-91498563D01*
X133970946Y-91560494D01*
X134073933Y-91603153D01*
X134183264Y-91624900D01*
X134294736Y-91624900D01*
X134404067Y-91603153D01*
X134507054Y-91560494D01*
X134599740Y-91498563D01*
X134678563Y-91419740D01*
X134740494Y-91327054D01*
X134783153Y-91224067D01*
X134804900Y-91114736D01*
X134804900Y-91003264D01*
X134783153Y-90893933D01*
X134740494Y-90790946D01*
X134678563Y-90698260D01*
X134599740Y-90619437D01*
X134507054Y-90557506D01*
X134503952Y-90556221D01*
X138155500Y-90556221D01*
X138155500Y-90643779D01*
X138172582Y-90729656D01*
X138206089Y-90810550D01*
X138254734Y-90883352D01*
X138316648Y-90945266D01*
X138389450Y-90993911D01*
X138470344Y-91027418D01*
X138556221Y-91044500D01*
X138643779Y-91044500D01*
X138729656Y-91027418D01*
X138810550Y-90993911D01*
X138883352Y-90945266D01*
X138945266Y-90883352D01*
X138992928Y-90812021D01*
X140195300Y-90812021D01*
X140195300Y-90899579D01*
X140212382Y-90985456D01*
X140245889Y-91066350D01*
X140294534Y-91139152D01*
X140356448Y-91201066D01*
X140429250Y-91249711D01*
X140510144Y-91283218D01*
X140596021Y-91300300D01*
X140683579Y-91300300D01*
X140769456Y-91283218D01*
X140850350Y-91249711D01*
X140923152Y-91201066D01*
X140985066Y-91139152D01*
X141033711Y-91066350D01*
X141044368Y-91040621D01*
X141236700Y-91040621D01*
X141236700Y-91128179D01*
X141253782Y-91214056D01*
X141287289Y-91294950D01*
X141335934Y-91367752D01*
X141397848Y-91429666D01*
X141470650Y-91478311D01*
X141551544Y-91511818D01*
X141637421Y-91528900D01*
X141724979Y-91528900D01*
X141810856Y-91511818D01*
X141891750Y-91478311D01*
X141964552Y-91429666D01*
X142023397Y-91370821D01*
X142684500Y-91370821D01*
X142684500Y-91458379D01*
X142701582Y-91544256D01*
X142735089Y-91625150D01*
X142783734Y-91697952D01*
X142845648Y-91759866D01*
X142918450Y-91808511D01*
X142999344Y-91842018D01*
X143085221Y-91859100D01*
X143172779Y-91859100D01*
X143258656Y-91842018D01*
X143339550Y-91808511D01*
X143412352Y-91759866D01*
X143474266Y-91697952D01*
X143522911Y-91625150D01*
X143556418Y-91544256D01*
X143573500Y-91458379D01*
X143573500Y-91370821D01*
X143556418Y-91284944D01*
X143522911Y-91204050D01*
X143474266Y-91131248D01*
X143412352Y-91069334D01*
X143339550Y-91020689D01*
X143258656Y-90987182D01*
X143172779Y-90970100D01*
X143085221Y-90970100D01*
X142999344Y-90987182D01*
X142918450Y-91020689D01*
X142845648Y-91069334D01*
X142783734Y-91131248D01*
X142735089Y-91204050D01*
X142701582Y-91284944D01*
X142684500Y-91370821D01*
X142023397Y-91370821D01*
X142026466Y-91367752D01*
X142075111Y-91294950D01*
X142108618Y-91214056D01*
X142125700Y-91128179D01*
X142125700Y-91040621D01*
X142108618Y-90954744D01*
X142075111Y-90873850D01*
X142026466Y-90801048D01*
X141964552Y-90739134D01*
X141891750Y-90690489D01*
X141810856Y-90656982D01*
X141724979Y-90639900D01*
X141637421Y-90639900D01*
X141551544Y-90656982D01*
X141470650Y-90690489D01*
X141397848Y-90739134D01*
X141335934Y-90801048D01*
X141287289Y-90873850D01*
X141253782Y-90954744D01*
X141236700Y-91040621D01*
X141044368Y-91040621D01*
X141067218Y-90985456D01*
X141084300Y-90899579D01*
X141084300Y-90812021D01*
X141067218Y-90726144D01*
X141033711Y-90645250D01*
X140985066Y-90572448D01*
X140923152Y-90510534D01*
X140850350Y-90461889D01*
X140769456Y-90428382D01*
X140683579Y-90411300D01*
X140596021Y-90411300D01*
X140510144Y-90428382D01*
X140429250Y-90461889D01*
X140356448Y-90510534D01*
X140294534Y-90572448D01*
X140245889Y-90645250D01*
X140212382Y-90726144D01*
X140195300Y-90812021D01*
X138992928Y-90812021D01*
X138993911Y-90810550D01*
X139027418Y-90729656D01*
X139044500Y-90643779D01*
X139044500Y-90556221D01*
X139027418Y-90470344D01*
X138993911Y-90389450D01*
X138945266Y-90316648D01*
X138883352Y-90254734D01*
X138810550Y-90206089D01*
X138729656Y-90172582D01*
X138643779Y-90155500D01*
X138556221Y-90155500D01*
X138470344Y-90172582D01*
X138389450Y-90206089D01*
X138316648Y-90254734D01*
X138254734Y-90316648D01*
X138206089Y-90389450D01*
X138172582Y-90470344D01*
X138155500Y-90556221D01*
X134503952Y-90556221D01*
X134404067Y-90514847D01*
X134294736Y-90493100D01*
X134183264Y-90493100D01*
X134073933Y-90514847D01*
X133970946Y-90557506D01*
X133878260Y-90619437D01*
X133799437Y-90698260D01*
X133737506Y-90790946D01*
X133694847Y-90893933D01*
X133673100Y-91003264D01*
X132422900Y-91003264D01*
X132422900Y-89552613D01*
X133709600Y-89552613D01*
X133709600Y-89644387D01*
X133727505Y-89734398D01*
X133762625Y-89819186D01*
X133813612Y-89895494D01*
X133878506Y-89960388D01*
X133954814Y-90011375D01*
X134039602Y-90046495D01*
X134129613Y-90064400D01*
X134221387Y-90064400D01*
X134311398Y-90046495D01*
X134396186Y-90011375D01*
X134472494Y-89960388D01*
X134537388Y-89895494D01*
X134588375Y-89819186D01*
X134623495Y-89734398D01*
X134641400Y-89644387D01*
X134641400Y-89616113D01*
X136313100Y-89616113D01*
X136313100Y-89707887D01*
X136331005Y-89797898D01*
X136366125Y-89882686D01*
X136417112Y-89958994D01*
X136482006Y-90023888D01*
X136558314Y-90074875D01*
X136643102Y-90109995D01*
X136733113Y-90127900D01*
X136824887Y-90127900D01*
X136914898Y-90109995D01*
X136999686Y-90074875D01*
X137075994Y-90023888D01*
X137140888Y-89958994D01*
X137191875Y-89882686D01*
X137226995Y-89797898D01*
X137244900Y-89707887D01*
X137244900Y-89616113D01*
X137242933Y-89606221D01*
X141055500Y-89606221D01*
X141055500Y-89693779D01*
X141072582Y-89779656D01*
X141106089Y-89860550D01*
X141154734Y-89933352D01*
X141216648Y-89995266D01*
X141289450Y-90043911D01*
X141370344Y-90077418D01*
X141456221Y-90094500D01*
X141543779Y-90094500D01*
X141629656Y-90077418D01*
X141710550Y-90043911D01*
X141783352Y-89995266D01*
X141825000Y-89953618D01*
X141866648Y-89995266D01*
X141939450Y-90043911D01*
X142020344Y-90077418D01*
X142106221Y-90094500D01*
X142193779Y-90094500D01*
X142279656Y-90077418D01*
X142360550Y-90043911D01*
X142433352Y-89995266D01*
X142495266Y-89933352D01*
X142536112Y-89872221D01*
X143700500Y-89872221D01*
X143700500Y-89959779D01*
X143717582Y-90045656D01*
X143751089Y-90126550D01*
X143799734Y-90199352D01*
X143861648Y-90261266D01*
X143915127Y-90297000D01*
X143861648Y-90332734D01*
X143799734Y-90394648D01*
X143751089Y-90467450D01*
X143717582Y-90548344D01*
X143700500Y-90634221D01*
X143700500Y-90721779D01*
X143717582Y-90807656D01*
X143751089Y-90888550D01*
X143799734Y-90961352D01*
X143861648Y-91023266D01*
X143934450Y-91071911D01*
X144015344Y-91105418D01*
X144101221Y-91122500D01*
X144188779Y-91122500D01*
X144274656Y-91105418D01*
X144355550Y-91071911D01*
X144428352Y-91023266D01*
X144490266Y-90961352D01*
X144538911Y-90888550D01*
X144572418Y-90807656D01*
X144589500Y-90721779D01*
X144589500Y-90634221D01*
X144589081Y-90632113D01*
X153712100Y-90632113D01*
X153712100Y-90723887D01*
X153730005Y-90813898D01*
X153765125Y-90898686D01*
X153816112Y-90974994D01*
X153881006Y-91039888D01*
X153957314Y-91090875D01*
X154042102Y-91125995D01*
X154132113Y-91143900D01*
X154223887Y-91143900D01*
X154313898Y-91125995D01*
X154398686Y-91090875D01*
X154474994Y-91039888D01*
X154539888Y-90974994D01*
X154590875Y-90898686D01*
X154625995Y-90813898D01*
X154643900Y-90723887D01*
X154643900Y-90632113D01*
X154625995Y-90542102D01*
X154590875Y-90457314D01*
X154539888Y-90381006D01*
X154474994Y-90316112D01*
X154398686Y-90265125D01*
X154313898Y-90230005D01*
X154223887Y-90212100D01*
X154132113Y-90212100D01*
X154042102Y-90230005D01*
X153957314Y-90265125D01*
X153881006Y-90316112D01*
X153816112Y-90381006D01*
X153765125Y-90457314D01*
X153730005Y-90542102D01*
X153712100Y-90632113D01*
X144589081Y-90632113D01*
X144572418Y-90548344D01*
X144538911Y-90467450D01*
X144490266Y-90394648D01*
X144428352Y-90332734D01*
X144374873Y-90297000D01*
X144428352Y-90261266D01*
X144490266Y-90199352D01*
X144538911Y-90126550D01*
X144572418Y-90045656D01*
X144589500Y-89959779D01*
X144589500Y-89872221D01*
X144572418Y-89786344D01*
X144538911Y-89705450D01*
X144490266Y-89632648D01*
X144475839Y-89618221D01*
X145732500Y-89618221D01*
X145732500Y-89705779D01*
X145749582Y-89791656D01*
X145783089Y-89872550D01*
X145831734Y-89945352D01*
X145893648Y-90007266D01*
X145966450Y-90055911D01*
X146047344Y-90089418D01*
X146133221Y-90106500D01*
X146220779Y-90106500D01*
X146306656Y-90089418D01*
X146387550Y-90055911D01*
X146460352Y-90007266D01*
X146522266Y-89945352D01*
X146570911Y-89872550D01*
X146604418Y-89791656D01*
X146621500Y-89705779D01*
X146621500Y-89618221D01*
X146621081Y-89616113D01*
X153712100Y-89616113D01*
X153712100Y-89707887D01*
X153730005Y-89797898D01*
X153765125Y-89882686D01*
X153816112Y-89958994D01*
X153881006Y-90023888D01*
X153957314Y-90074875D01*
X154042102Y-90109995D01*
X154132113Y-90127900D01*
X154223887Y-90127900D01*
X154313898Y-90109995D01*
X154398686Y-90074875D01*
X154474994Y-90023888D01*
X154539888Y-89958994D01*
X154590875Y-89882686D01*
X154625995Y-89797898D01*
X154643900Y-89707887D01*
X154643900Y-89616113D01*
X154625995Y-89526102D01*
X154590875Y-89441314D01*
X154539888Y-89365006D01*
X154474994Y-89300112D01*
X154398686Y-89249125D01*
X154313898Y-89214005D01*
X154223887Y-89196100D01*
X154132113Y-89196100D01*
X154042102Y-89214005D01*
X153957314Y-89249125D01*
X153881006Y-89300112D01*
X153816112Y-89365006D01*
X153765125Y-89441314D01*
X153730005Y-89526102D01*
X153712100Y-89616113D01*
X146621081Y-89616113D01*
X146604418Y-89532344D01*
X146570911Y-89451450D01*
X146522266Y-89378648D01*
X146460352Y-89316734D01*
X146387550Y-89268089D01*
X146306656Y-89234582D01*
X146220779Y-89217500D01*
X146133221Y-89217500D01*
X146047344Y-89234582D01*
X145966450Y-89268089D01*
X145893648Y-89316734D01*
X145831734Y-89378648D01*
X145783089Y-89451450D01*
X145749582Y-89532344D01*
X145732500Y-89618221D01*
X144475839Y-89618221D01*
X144428352Y-89570734D01*
X144355550Y-89522089D01*
X144274656Y-89488582D01*
X144188779Y-89471500D01*
X144101221Y-89471500D01*
X144015344Y-89488582D01*
X143934450Y-89522089D01*
X143861648Y-89570734D01*
X143799734Y-89632648D01*
X143751089Y-89705450D01*
X143717582Y-89786344D01*
X143700500Y-89872221D01*
X142536112Y-89872221D01*
X142543911Y-89860550D01*
X142577418Y-89779656D01*
X142594500Y-89693779D01*
X142594500Y-89606221D01*
X142577418Y-89520344D01*
X142543911Y-89439450D01*
X142495266Y-89366648D01*
X142433352Y-89304734D01*
X142360550Y-89256089D01*
X142279656Y-89222582D01*
X142193779Y-89205500D01*
X142106221Y-89205500D01*
X142020344Y-89222582D01*
X141939450Y-89256089D01*
X141866648Y-89304734D01*
X141825000Y-89346382D01*
X141783352Y-89304734D01*
X141710550Y-89256089D01*
X141629656Y-89222582D01*
X141543779Y-89205500D01*
X141456221Y-89205500D01*
X141370344Y-89222582D01*
X141289450Y-89256089D01*
X141216648Y-89304734D01*
X141154734Y-89366648D01*
X141106089Y-89439450D01*
X141072582Y-89520344D01*
X141055500Y-89606221D01*
X137242933Y-89606221D01*
X137226995Y-89526102D01*
X137191875Y-89441314D01*
X137140888Y-89365006D01*
X137075994Y-89300112D01*
X136999686Y-89249125D01*
X136914898Y-89214005D01*
X136824887Y-89196100D01*
X136733113Y-89196100D01*
X136643102Y-89214005D01*
X136558314Y-89249125D01*
X136482006Y-89300112D01*
X136417112Y-89365006D01*
X136366125Y-89441314D01*
X136331005Y-89526102D01*
X136313100Y-89616113D01*
X134641400Y-89616113D01*
X134641400Y-89552613D01*
X134623495Y-89462602D01*
X134588375Y-89377814D01*
X134537388Y-89301506D01*
X134472494Y-89236612D01*
X134396186Y-89185625D01*
X134311398Y-89150505D01*
X134221387Y-89132600D01*
X134129613Y-89132600D01*
X134039602Y-89150505D01*
X133954814Y-89185625D01*
X133878506Y-89236612D01*
X133813612Y-89301506D01*
X133762625Y-89377814D01*
X133727505Y-89462602D01*
X133709600Y-89552613D01*
X132422900Y-89552613D01*
X132422900Y-88854113D01*
X138091100Y-88854113D01*
X138091100Y-88945887D01*
X138109005Y-89035898D01*
X138144125Y-89120686D01*
X138195112Y-89196994D01*
X138260006Y-89261888D01*
X138336314Y-89312875D01*
X138421102Y-89347995D01*
X138511113Y-89365900D01*
X138602887Y-89365900D01*
X138692898Y-89347995D01*
X138777686Y-89312875D01*
X138853994Y-89261888D01*
X138918888Y-89196994D01*
X138969875Y-89120686D01*
X139004995Y-89035898D01*
X139022900Y-88945887D01*
X139022900Y-88854113D01*
X139004995Y-88764102D01*
X138969875Y-88679314D01*
X138918888Y-88603006D01*
X138853994Y-88538112D01*
X138777686Y-88487125D01*
X138692898Y-88452005D01*
X138602887Y-88434100D01*
X138511113Y-88434100D01*
X138421102Y-88452005D01*
X138336314Y-88487125D01*
X138260006Y-88538112D01*
X138195112Y-88603006D01*
X138144125Y-88679314D01*
X138109005Y-88764102D01*
X138091100Y-88854113D01*
X132422900Y-88854113D01*
X132422900Y-87764021D01*
X133565900Y-87764021D01*
X133565900Y-87851579D01*
X133582982Y-87937456D01*
X133616489Y-88018350D01*
X133665134Y-88091152D01*
X133727048Y-88153066D01*
X133799850Y-88201711D01*
X133880744Y-88235218D01*
X133966621Y-88252300D01*
X134054179Y-88252300D01*
X134140056Y-88235218D01*
X134220950Y-88201711D01*
X134293752Y-88153066D01*
X134355666Y-88091152D01*
X134404311Y-88018350D01*
X134437818Y-87937456D01*
X134454900Y-87851579D01*
X134454900Y-87764021D01*
X134437818Y-87678144D01*
X134404311Y-87597250D01*
X134355666Y-87524448D01*
X134293752Y-87462534D01*
X134220950Y-87413889D01*
X134140056Y-87380382D01*
X134054179Y-87363300D01*
X133966621Y-87363300D01*
X133880744Y-87380382D01*
X133799850Y-87413889D01*
X133727048Y-87462534D01*
X133665134Y-87524448D01*
X133616489Y-87597250D01*
X133582982Y-87678144D01*
X133565900Y-87764021D01*
X132422900Y-87764021D01*
X132422900Y-86824221D01*
X133718300Y-86824221D01*
X133718300Y-86911779D01*
X133735382Y-86997656D01*
X133768889Y-87078550D01*
X133817534Y-87151352D01*
X133879448Y-87213266D01*
X133952250Y-87261911D01*
X134033144Y-87295418D01*
X134119021Y-87312500D01*
X134206579Y-87312500D01*
X134292456Y-87295418D01*
X134373350Y-87261911D01*
X134446152Y-87213266D01*
X134508066Y-87151352D01*
X134556711Y-87078550D01*
X134590218Y-86997656D01*
X134607300Y-86911779D01*
X134607300Y-86824221D01*
X134590218Y-86738344D01*
X134572312Y-86695113D01*
X136313100Y-86695113D01*
X136313100Y-86786887D01*
X136331005Y-86876898D01*
X136366125Y-86961686D01*
X136417112Y-87037994D01*
X136482006Y-87102888D01*
X136558314Y-87153875D01*
X136643102Y-87188995D01*
X136733113Y-87206900D01*
X136824887Y-87206900D01*
X136914898Y-87188995D01*
X136999686Y-87153875D01*
X137075994Y-87102888D01*
X137140888Y-87037994D01*
X137160000Y-87009391D01*
X137179112Y-87037994D01*
X137244006Y-87102888D01*
X137320314Y-87153875D01*
X137405102Y-87188995D01*
X137495113Y-87206900D01*
X137586887Y-87206900D01*
X137676898Y-87188995D01*
X137761686Y-87153875D01*
X137837994Y-87102888D01*
X137902888Y-87037994D01*
X137953875Y-86961686D01*
X137958209Y-86951221D01*
X138747500Y-86951221D01*
X138747500Y-87038779D01*
X138764582Y-87124656D01*
X138798089Y-87205550D01*
X138846734Y-87278352D01*
X138908648Y-87340266D01*
X138981450Y-87388911D01*
X139062344Y-87422418D01*
X139148221Y-87439500D01*
X139218772Y-87439500D01*
X139205500Y-87506221D01*
X139205500Y-87593779D01*
X139222582Y-87679656D01*
X139256089Y-87760550D01*
X139304734Y-87833352D01*
X139366648Y-87895266D01*
X139439450Y-87943911D01*
X139520344Y-87977418D01*
X139606221Y-87994500D01*
X139693779Y-87994500D01*
X139779656Y-87977418D01*
X139860550Y-87943911D01*
X139933352Y-87895266D01*
X139995266Y-87833352D01*
X140043911Y-87760550D01*
X140077418Y-87679656D01*
X140094500Y-87593779D01*
X140094500Y-87506221D01*
X140091590Y-87491590D01*
X140106221Y-87494500D01*
X140193779Y-87494500D01*
X140279656Y-87477418D01*
X140360550Y-87443911D01*
X140433352Y-87395266D01*
X140495266Y-87333352D01*
X140528458Y-87283676D01*
X140585048Y-87340266D01*
X140657850Y-87388911D01*
X140738744Y-87422418D01*
X140822000Y-87438979D01*
X140796582Y-87500344D01*
X140779500Y-87586221D01*
X140779500Y-87673779D01*
X140796582Y-87759656D01*
X140830089Y-87840550D01*
X140878734Y-87913352D01*
X140940648Y-87975266D01*
X141013450Y-88023911D01*
X141094344Y-88057418D01*
X141180221Y-88074500D01*
X141267779Y-88074500D01*
X141353656Y-88057418D01*
X141434550Y-88023911D01*
X141507352Y-87975266D01*
X141569266Y-87913352D01*
X141617911Y-87840550D01*
X141651418Y-87759656D01*
X141668500Y-87673779D01*
X141668500Y-87586221D01*
X141651418Y-87500344D01*
X141617911Y-87419450D01*
X141569266Y-87346648D01*
X141507352Y-87284734D01*
X141434550Y-87236089D01*
X141353656Y-87202582D01*
X141270400Y-87186021D01*
X141295818Y-87124656D01*
X141305054Y-87078221D01*
X142176500Y-87078221D01*
X142176500Y-87165779D01*
X142193582Y-87251656D01*
X142227089Y-87332550D01*
X142275734Y-87405352D01*
X142337648Y-87467266D01*
X142410450Y-87515911D01*
X142491344Y-87549418D01*
X142577221Y-87566500D01*
X142664779Y-87566500D01*
X142750656Y-87549418D01*
X142831550Y-87515911D01*
X142904352Y-87467266D01*
X142966266Y-87405352D01*
X143014911Y-87332550D01*
X143048418Y-87251656D01*
X143065500Y-87165779D01*
X143065500Y-87078221D01*
X143048418Y-86992344D01*
X143014911Y-86911450D01*
X142966266Y-86838648D01*
X142904352Y-86776734D01*
X142831550Y-86728089D01*
X142757028Y-86697221D01*
X143192500Y-86697221D01*
X143192500Y-86784779D01*
X143209582Y-86870656D01*
X143243089Y-86951550D01*
X143291734Y-87024352D01*
X143353648Y-87086266D01*
X143426450Y-87134911D01*
X143507344Y-87168418D01*
X143593221Y-87185500D01*
X143680779Y-87185500D01*
X143766656Y-87168418D01*
X143847550Y-87134911D01*
X143848552Y-87134241D01*
X143878089Y-87205550D01*
X143926734Y-87278352D01*
X143988648Y-87340266D01*
X144061450Y-87388911D01*
X144142344Y-87422418D01*
X144228221Y-87439500D01*
X144250784Y-87439500D01*
X144225582Y-87500344D01*
X144208500Y-87586221D01*
X144208500Y-87673779D01*
X144225582Y-87759656D01*
X144259089Y-87840550D01*
X144307734Y-87913352D01*
X144369648Y-87975266D01*
X144442450Y-88023911D01*
X144523344Y-88057418D01*
X144609221Y-88074500D01*
X144696779Y-88074500D01*
X144782656Y-88057418D01*
X144863550Y-88023911D01*
X144936352Y-87975266D01*
X144998266Y-87913352D01*
X145046911Y-87840550D01*
X145080418Y-87759656D01*
X145097500Y-87673779D01*
X145097500Y-87586221D01*
X145080418Y-87500344D01*
X145046911Y-87419450D01*
X144998266Y-87346648D01*
X144936352Y-87284734D01*
X144863550Y-87236089D01*
X144782656Y-87202582D01*
X144696779Y-87185500D01*
X144674216Y-87185500D01*
X144699418Y-87124656D01*
X144716500Y-87038779D01*
X144716500Y-86951221D01*
X144711183Y-86924490D01*
X146604100Y-86924490D01*
X146604100Y-87065510D01*
X146631612Y-87203820D01*
X146685578Y-87334106D01*
X146763924Y-87451360D01*
X146863640Y-87551076D01*
X146980894Y-87629422D01*
X147111180Y-87683388D01*
X147249490Y-87710900D01*
X147390510Y-87710900D01*
X147528820Y-87683388D01*
X147659106Y-87629422D01*
X147776360Y-87551076D01*
X147876076Y-87451360D01*
X147954422Y-87334106D01*
X148008388Y-87203820D01*
X148035900Y-87065510D01*
X148035900Y-86924490D01*
X148008388Y-86786180D01*
X147954422Y-86655894D01*
X147876076Y-86538640D01*
X147776360Y-86438924D01*
X147659106Y-86360578D01*
X147528820Y-86306612D01*
X147390510Y-86279100D01*
X147249490Y-86279100D01*
X147111180Y-86306612D01*
X146980894Y-86360578D01*
X146863640Y-86438924D01*
X146763924Y-86538640D01*
X146685578Y-86655894D01*
X146631612Y-86786180D01*
X146604100Y-86924490D01*
X144711183Y-86924490D01*
X144699418Y-86865344D01*
X144665911Y-86784450D01*
X144617266Y-86711648D01*
X144555352Y-86649734D01*
X144482550Y-86601089D01*
X144401656Y-86567582D01*
X144315779Y-86550500D01*
X144228221Y-86550500D01*
X144142344Y-86567582D01*
X144061450Y-86601089D01*
X144060448Y-86601759D01*
X144030911Y-86530450D01*
X143982266Y-86457648D01*
X143920352Y-86395734D01*
X143847550Y-86347089D01*
X143766656Y-86313582D01*
X143680779Y-86296500D01*
X143593221Y-86296500D01*
X143507344Y-86313582D01*
X143426450Y-86347089D01*
X143353648Y-86395734D01*
X143291734Y-86457648D01*
X143243089Y-86530450D01*
X143209582Y-86611344D01*
X143192500Y-86697221D01*
X142757028Y-86697221D01*
X142750656Y-86694582D01*
X142664779Y-86677500D01*
X142577221Y-86677500D01*
X142491344Y-86694582D01*
X142410450Y-86728089D01*
X142337648Y-86776734D01*
X142275734Y-86838648D01*
X142227089Y-86911450D01*
X142193582Y-86992344D01*
X142176500Y-87078221D01*
X141305054Y-87078221D01*
X141312900Y-87038779D01*
X141312900Y-86951221D01*
X141295818Y-86865344D01*
X141262311Y-86784450D01*
X141213666Y-86711648D01*
X141151752Y-86649734D01*
X141078950Y-86601089D01*
X141063848Y-86594834D01*
X141077888Y-86580794D01*
X141128875Y-86504486D01*
X141163995Y-86419698D01*
X141181900Y-86329687D01*
X141181900Y-86237913D01*
X141163995Y-86147902D01*
X141128875Y-86063114D01*
X141077888Y-85986806D01*
X141012994Y-85921912D01*
X140936686Y-85870925D01*
X140851898Y-85835805D01*
X140761887Y-85817900D01*
X140670113Y-85817900D01*
X140580102Y-85835805D01*
X140495314Y-85870925D01*
X140419006Y-85921912D01*
X140354112Y-85986806D01*
X140303125Y-86063114D01*
X140268005Y-86147902D01*
X140250100Y-86237913D01*
X140250100Y-86329687D01*
X140268005Y-86419698D01*
X140303125Y-86504486D01*
X140354112Y-86580794D01*
X140419006Y-86645688D01*
X140495314Y-86696675D01*
X140525573Y-86709209D01*
X140523134Y-86711648D01*
X140489942Y-86761324D01*
X140433352Y-86704734D01*
X140360550Y-86656089D01*
X140279656Y-86622582D01*
X140193779Y-86605500D01*
X140106221Y-86605500D01*
X140020344Y-86622582D01*
X139939450Y-86656089D01*
X139866648Y-86704734D01*
X139804734Y-86766648D01*
X139756089Y-86839450D01*
X139722582Y-86920344D01*
X139705500Y-87006221D01*
X139705500Y-87093779D01*
X139708410Y-87108410D01*
X139693779Y-87105500D01*
X139623228Y-87105500D01*
X139636500Y-87038779D01*
X139636500Y-86951221D01*
X139619418Y-86865344D01*
X139585911Y-86784450D01*
X139537266Y-86711648D01*
X139475352Y-86649734D01*
X139402550Y-86601089D01*
X139321656Y-86567582D01*
X139235779Y-86550500D01*
X139148221Y-86550500D01*
X139062344Y-86567582D01*
X138981450Y-86601089D01*
X138908648Y-86649734D01*
X138846734Y-86711648D01*
X138798089Y-86784450D01*
X138764582Y-86865344D01*
X138747500Y-86951221D01*
X137958209Y-86951221D01*
X137988995Y-86876898D01*
X138006900Y-86786887D01*
X138006900Y-86695113D01*
X137988995Y-86605102D01*
X137953875Y-86520314D01*
X137902888Y-86444006D01*
X137837994Y-86379112D01*
X137761686Y-86328125D01*
X137676898Y-86293005D01*
X137586887Y-86275100D01*
X137495113Y-86275100D01*
X137405102Y-86293005D01*
X137320314Y-86328125D01*
X137244006Y-86379112D01*
X137179112Y-86444006D01*
X137160000Y-86472609D01*
X137140888Y-86444006D01*
X137075994Y-86379112D01*
X136999686Y-86328125D01*
X136914898Y-86293005D01*
X136824887Y-86275100D01*
X136733113Y-86275100D01*
X136643102Y-86293005D01*
X136558314Y-86328125D01*
X136482006Y-86379112D01*
X136417112Y-86444006D01*
X136366125Y-86520314D01*
X136331005Y-86605102D01*
X136313100Y-86695113D01*
X134572312Y-86695113D01*
X134556711Y-86657450D01*
X134508066Y-86584648D01*
X134446152Y-86522734D01*
X134373350Y-86474089D01*
X134292456Y-86440582D01*
X134206579Y-86423500D01*
X134119021Y-86423500D01*
X134033144Y-86440582D01*
X133952250Y-86474089D01*
X133879448Y-86522734D01*
X133817534Y-86584648D01*
X133768889Y-86657450D01*
X133735382Y-86738344D01*
X133718300Y-86824221D01*
X132422900Y-86824221D01*
X132422900Y-84162900D01*
X133730708Y-84162900D01*
X133687513Y-84191762D01*
%TD*%
M02*
