%TF.GenerationSoftware,KiCad,Pcbnew,5.1.0-rc2-unknown-036be7d~80~ubuntu16.04.1*%
%TF.CreationDate,2022-06-01T13:33:31+03:00*%
%TF.ProjectId,Flash-e_Rev_C,466c6173-682d-4655-9f52-65765f432e6b,A*%
%TF.SameCoordinates,Original*%
%TF.FileFunction,Soldermask,Top*%
%TF.FilePolarity,Negative*%
%FSLAX46Y46*%
G04 Gerber Fmt 4.6, Leading zero omitted, Abs format (unit mm)*
G04 Created by KiCad (PCBNEW 5.1.0-rc2-unknown-036be7d~80~ubuntu16.04.1) date 2022-06-01 13:33:31*
%MOMM*%
%LPD*%
G04 APERTURE LIST*
%ADD10C,0.701600*%
%ADD11C,0.350000*%
%ADD12C,0.400000*%
%ADD13R,1.300000X0.350000*%
%ADD14C,1.001600*%
%ADD15R,0.863600X0.609600*%
%ADD16C,1.254000*%
%ADD17R,0.651600X0.601600*%
%ADD18R,0.601600X0.651600*%
G04 APERTURE END LIST*
D10*
%TO.C,Flash_CON1*%
X152630000Y-85640000D03*
X152630000Y-97240000D03*
%TD*%
D11*
%TO.C,U2*%
X139150000Y-88150000D03*
X139650000Y-88150000D03*
X140150000Y-88150000D03*
X140650000Y-88150000D03*
X141150000Y-88150000D03*
X141650000Y-88150000D03*
X142150000Y-88150000D03*
X142650000Y-88150000D03*
X143150000Y-88150000D03*
X143650000Y-88150000D03*
X144150000Y-88150000D03*
X145650000Y-88150000D03*
X145150000Y-88150000D03*
X144650000Y-88150000D03*
X144650000Y-88650000D03*
X145150000Y-88650000D03*
X145650000Y-88650000D03*
X144150000Y-88650000D03*
X143650000Y-88650000D03*
X143150000Y-88650000D03*
X142650000Y-88650000D03*
X142150000Y-88650000D03*
X141650000Y-88650000D03*
X141150000Y-88650000D03*
X140650000Y-88650000D03*
X140150000Y-88650000D03*
X139650000Y-88650000D03*
X139150000Y-88650000D03*
X139150000Y-89150000D03*
X139650000Y-89150000D03*
X140150000Y-89150000D03*
X140650000Y-89150000D03*
X141150000Y-89150000D03*
X141650000Y-89150000D03*
X142150000Y-89150000D03*
X142650000Y-89150000D03*
X143150000Y-89150000D03*
X143650000Y-89150000D03*
X144150000Y-89150000D03*
X145650000Y-89150000D03*
X145150000Y-89150000D03*
X144650000Y-89150000D03*
X144650000Y-89650000D03*
X145150000Y-89650000D03*
X145650000Y-89650000D03*
X140650000Y-89650000D03*
X140150000Y-89650000D03*
X139650000Y-89650000D03*
X139150000Y-89650000D03*
X144650000Y-90150000D03*
X145150000Y-90150000D03*
X145650000Y-90150000D03*
X143650000Y-90150000D03*
X143150000Y-90150000D03*
X142650000Y-90150000D03*
X142150000Y-90150000D03*
X141650000Y-90150000D03*
X141150000Y-90150000D03*
X140150000Y-90150000D03*
X139650000Y-90150000D03*
X139150000Y-90150000D03*
X139150000Y-90650000D03*
X139650000Y-90650000D03*
X140150000Y-90650000D03*
X141150000Y-90650000D03*
X143650000Y-90650000D03*
X145650000Y-90650000D03*
X145150000Y-90650000D03*
X144650000Y-90650000D03*
X144650000Y-91150000D03*
X145150000Y-91150000D03*
X145650000Y-91150000D03*
X143650000Y-91150000D03*
X141150000Y-91150000D03*
X140150000Y-91150000D03*
X139650000Y-91150000D03*
X139150000Y-91150000D03*
X139150000Y-92150000D03*
X139650000Y-92150000D03*
X140150000Y-92150000D03*
X141150000Y-92150000D03*
X143650000Y-92150000D03*
X145650000Y-92150000D03*
X145150000Y-92150000D03*
X144650000Y-92150000D03*
X144650000Y-91650000D03*
X145150000Y-91650000D03*
X145650000Y-91650000D03*
X143650000Y-91650000D03*
X141150000Y-91650000D03*
X140150000Y-91650000D03*
X139650000Y-91650000D03*
X139150000Y-91650000D03*
X139150000Y-92650000D03*
X139650000Y-92650000D03*
X140150000Y-92650000D03*
X141150000Y-92650000D03*
X141650000Y-92650000D03*
X142150000Y-92650000D03*
X142650000Y-92650000D03*
X143150000Y-92650000D03*
X143650000Y-92650000D03*
X145650000Y-92650000D03*
X145150000Y-92650000D03*
X144650000Y-92650000D03*
X139150000Y-93150000D03*
X139650000Y-93150000D03*
X140150000Y-93150000D03*
X145650000Y-93150000D03*
X145150000Y-93150000D03*
X144650000Y-93150000D03*
X144650000Y-94650000D03*
X145150000Y-94650000D03*
X145650000Y-94650000D03*
X144150000Y-94650000D03*
X143650000Y-94650000D03*
X143150000Y-94650000D03*
X142650000Y-94650000D03*
X142150000Y-94650000D03*
X141650000Y-94650000D03*
X141150000Y-94650000D03*
X140650000Y-94650000D03*
X140150000Y-94650000D03*
X139650000Y-94650000D03*
X139150000Y-94650000D03*
X139150000Y-94150000D03*
X139650000Y-94150000D03*
X140150000Y-94150000D03*
X140650000Y-94150000D03*
X141150000Y-94150000D03*
X141650000Y-94150000D03*
X142150000Y-94150000D03*
X142650000Y-94150000D03*
X143150000Y-94150000D03*
X143650000Y-94150000D03*
X144150000Y-94150000D03*
X145650000Y-94150000D03*
X145150000Y-94150000D03*
X144650000Y-94150000D03*
X144650000Y-93650000D03*
X145150000Y-93650000D03*
X145650000Y-93650000D03*
X144150000Y-93650000D03*
X143650000Y-93650000D03*
X143150000Y-93650000D03*
X142650000Y-93650000D03*
X142150000Y-93650000D03*
X141650000Y-93650000D03*
X141150000Y-93650000D03*
X140650000Y-93650000D03*
X140150000Y-93650000D03*
X139650000Y-93650000D03*
X139150000Y-93650000D03*
D12*
X148150000Y-84900000D03*
X148150000Y-97900000D03*
X136650000Y-97900000D03*
%TD*%
D13*
%TO.C,U1*%
X155251500Y-85690000D03*
X155251500Y-86190000D03*
X155251500Y-86690000D03*
X155251500Y-87190000D03*
X155251500Y-87690000D03*
X155251500Y-88190000D03*
X155251500Y-88690000D03*
X155251500Y-89190000D03*
X155251500Y-89690000D03*
X155251500Y-90190000D03*
X155251500Y-90690000D03*
X155251500Y-91190000D03*
X155251500Y-91690000D03*
X155251500Y-92190000D03*
X155251500Y-92690000D03*
X155251500Y-93190000D03*
X155251500Y-93690000D03*
X155251500Y-94190000D03*
X155251500Y-94690000D03*
X155251500Y-95190000D03*
X155251500Y-95690000D03*
X155251500Y-96190000D03*
X155251500Y-96690000D03*
X155251500Y-97190000D03*
X135451500Y-97190000D03*
X135451500Y-96690000D03*
X135451500Y-96190000D03*
X135451500Y-95690000D03*
X135451500Y-95190000D03*
X135451500Y-94690000D03*
X135451500Y-94190000D03*
X135451500Y-93690000D03*
X135451500Y-93190000D03*
X135451500Y-92690000D03*
X135451500Y-92190000D03*
X135451500Y-91690000D03*
X135451500Y-91190000D03*
X135451500Y-90690000D03*
X135451500Y-90190000D03*
X135451500Y-89690000D03*
X135451500Y-89190000D03*
X135451500Y-88690000D03*
X135451500Y-88190000D03*
X135451500Y-87690000D03*
X135451500Y-87190000D03*
X135451500Y-86690000D03*
X135451500Y-86190000D03*
X135451500Y-85690000D03*
%TD*%
D14*
%TO.C,TESTPAD7*%
X156718000Y-88519000D03*
%TD*%
D15*
%TO.C,NAND_WP1*%
X133985000Y-96393000D03*
X133985000Y-97155000D03*
%TD*%
D16*
%TO.C,FID1*%
X151511000Y-84963000D03*
%TD*%
%TO.C,FID2*%
X132842000Y-98298000D03*
%TD*%
D17*
%TO.C,C1*%
X133350000Y-93853000D03*
X133350000Y-92837000D03*
%TD*%
%TO.C,C2*%
X133350000Y-92075000D03*
X133350000Y-91059000D03*
%TD*%
%TO.C,R2*%
X133350000Y-94615000D03*
X133350000Y-95631000D03*
%TD*%
%TO.C,R3*%
X133350000Y-89281000D03*
X133350000Y-90297000D03*
%TD*%
%TO.C,R1*%
X133350000Y-87503000D03*
X133350000Y-88519000D03*
%TD*%
D18*
%TO.C,R10*%
X151257000Y-88773000D03*
X150241000Y-88773000D03*
%TD*%
%TO.C,C12*%
X151257000Y-86868000D03*
X150241000Y-86868000D03*
%TD*%
D16*
%TO.C,FID5*%
X150876000Y-97536000D03*
%TD*%
D17*
%TO.C,C13*%
X133350000Y-86741000D03*
X133350000Y-85725000D03*
%TD*%
D14*
%TO.C,TESTPAD1*%
X154813000Y-98171000D03*
%TD*%
%TO.C,TESTPAD2*%
X156718000Y-98044000D03*
%TD*%
%TO.C,TESTPAD3*%
X156718000Y-96139000D03*
%TD*%
%TO.C,TESTPAD4*%
X156718000Y-94234000D03*
%TD*%
%TO.C,TESTPAD5*%
X156718000Y-92329000D03*
%TD*%
%TO.C,TESTPAD6*%
X156718000Y-90424000D03*
%TD*%
%TO.C,TESTPAD8*%
X156718000Y-86614000D03*
%TD*%
%TO.C,TESTPAD9*%
X154813000Y-84709000D03*
%TD*%
%TO.C,TESTPAD10*%
X156718000Y-84709000D03*
%TD*%
%TO.C,TESTPAD11*%
X143637000Y-84709000D03*
%TD*%
%TO.C,TESTPAD12*%
X141732000Y-84709000D03*
%TD*%
%TO.C,TESTPAD13*%
X147447000Y-84709000D03*
%TD*%
%TO.C,TESTPAD14*%
X145542000Y-84709000D03*
%TD*%
%TO.C,TESTPAD15*%
X139827000Y-84709000D03*
%TD*%
%TO.C,TESTPAD16*%
X137922000Y-84709000D03*
%TD*%
%TO.C,TESTPAD17*%
X136017000Y-84709000D03*
%TD*%
%TO.C,TESTPAD18*%
X134112000Y-84709000D03*
%TD*%
%TO.C,TESTPAD19*%
X134112000Y-98171000D03*
%TD*%
%TO.C,TESTPAD20*%
X136017000Y-98171000D03*
%TD*%
%TO.C,TESTPAD21*%
X137922000Y-98171000D03*
%TD*%
%TO.C,TESTPAD22*%
X139827000Y-98171000D03*
%TD*%
%TO.C,TESTPAD23*%
X141732000Y-98171000D03*
%TD*%
%TO.C,TESTPAD24*%
X143637000Y-98171000D03*
%TD*%
%TO.C,TESTPAD25*%
X145542000Y-98171000D03*
%TD*%
%TO.C,TESTPAD26*%
X147447000Y-98171000D03*
%TD*%
%TO.C,TESTPAD27*%
X132969000Y-96647000D03*
%TD*%
D18*
%TO.C,R11*%
X150241000Y-87757000D03*
X151257000Y-87757000D03*
%TD*%
M02*
